<svg width="53" height="53" viewBox="0 0 53 53" fill="none" xmlns="http://www.w3.org/2000/svg">
<circle cx="26.5" cy="26.5" r="26.5" fill="#111111"/>
<g clip-path="url(#clip0_552_22)">
<path d="M26.6608 14C20.215 14 15 19.2208 15 25.6667C15 32.1125 20.215 37.3333 26.6608 37.3333C33.1067 37.3333 38.3333 32.1125 38.3333 25.6667C38.3333 19.2208 33.1067 14 26.6608 14ZM26.6667 35C21.51 35 17.3333 30.8233 17.3333 25.6667C17.3333 20.51 21.51 16.3333 26.6667 16.3333C31.8233 16.3333 36 20.51 36 25.6667C36 30.8233 31.8233 35 26.6667 35Z" fill="white" fill-opacity="0.9"/>
<path d="M24.75 20H23V27L29.1192 30.675L30 29.24L24.75 26.125V20Z" fill="white" fill-opacity="0.9"/>
</g>
<g clip-path="url(#clip1_552_22)">
<path d="M26.6608 15C20.215 15 15 20.2208 15 26.6667C15 33.1125 20.215 38.3333 26.6608 38.3333C33.1067 38.3333 38.3333 33.1125 38.3333 26.6667C38.3333 20.2208 33.1067 15 26.6608 15ZM26.6667 36C21.51 36 17.3333 31.8233 17.3333 26.6667C17.3333 21.51 21.51 17.3333 26.6667 17.3333C31.8233 17.3333 36 21.51 36 26.6667C36 31.8233 31.8233 36 26.6667 36Z" fill="white" fill-opacity="0.9"/>
<path d="M24.75 21H23V28L29.1192 31.675L30 30.24L24.75 27.125V21Z" fill="white" fill-opacity="0.9"/>
</g>
<defs>
<clipPath id="clip0_552_22">
<rect width="28" height="28" fill="white" transform="translate(13 13)"/>
</clipPath>
<clipPath id="clip1_552_22">
<rect width="28" height="28" fill="white" transform="translate(12 12)"/>
</clipPath>
</defs>
</svg>
