<svg width="189" height="78" viewBox="0 0 189 78" fill="none" xmlns="http://www.w3.org/2000/svg">
<path d="M61.9215 59.3863C60.3248 60.7144 57.3137 62.1534 53.3707 63.3912C55.714 65.7104 61.1108 66.5928 71.3309 64.1935C81.2909 61.8553 93.695 57.2704 102.363 53.4535C96.4099 48.2004 106.271 35.4285 111.616 37.5042C119.288 40.4838 116.102 45.1538 112.434 48.2047C111.095 49.3185 107.346 51.259 102.363 53.4535C93.695 57.2704 81.2909 61.8553 71.3309 64.1935C61.1108 66.5928 55.714 65.7104 53.3707 63.3912C47.953 58.0291 58.8584 44.9867 64.214 47.0667C71.886 50.0462 68.7601 53.6982 61.9215 59.3863Z" fill="#DA004C"/>
<path d="M1.48574 58.0323C17.4386 69.3501 40.4261 67.4549 53.3707 63.3912M53.3707 63.3912C57.3137 62.1534 60.3248 60.7144 61.9215 59.3863C68.7601 53.6982 71.886 50.0462 64.214 47.0667C58.8584 44.9867 47.953 58.0291 53.3707 63.3912ZM53.3707 63.3912C55.714 65.7104 61.1108 66.5928 71.3309 64.1935C81.2909 61.8553 93.695 57.2704 102.363 53.4535M102.363 53.4535C96.4099 48.2003 106.271 35.4285 111.616 37.5042C119.288 40.4838 116.102 45.1538 112.434 48.2047C111.095 49.3185 107.346 51.259 102.363 53.4535ZM102.363 53.4535C104.955 55.741 110.546 56.6028 120.815 54.1922C136.501 50.5096 157.76 33.4999 160.009 24.5527" stroke="#DA004C" stroke-width="2" stroke-linecap="round"/>
<path d="M165.851 33.0038L173.461 17.4631C173.591 17.1914 173.645 16.8893 173.616 16.5895C173.586 16.2897 173.476 16.0036 173.296 15.7619C173.118 15.5212 172.877 15.3334 172.601 15.2186C172.324 15.1039 172.021 15.0664 171.725 15.1103L154.75 17.7908C154.427 17.8449 154.128 17.9936 153.889 18.2181C153.651 18.4426 153.484 18.7329 153.411 19.0521L153.39 19.1828C153.345 19.4866 153.384 19.7971 153.505 20.0796C153.626 20.3621 153.823 20.6053 154.074 20.7821L160.456 25.3132L162.777 32.8505C162.877 33.1654 163.07 33.4429 163.33 33.6473C163.59 33.8516 163.905 33.9734 164.235 33.997C164.564 34.0205 164.894 33.9447 165.18 33.7793C165.466 33.6139 165.696 33.3666 165.841 33.0692L165.851 33.0038ZM182.476 11.3242C182.833 11.0654 183.072 10.6756 183.141 10.2406C183.21 9.80548 183.104 9.36079 182.845 9.00429C182.586 8.64778 182.196 8.40868 181.761 8.33958C181.326 8.27048 180.881 8.37703 180.525 8.63581L175.316 12.4313C175.14 12.5599 174.992 12.7219 174.879 12.9081C174.766 13.0942 174.691 13.3008 174.658 13.516C174.607 13.9298 174.714 14.3477 174.958 14.6859C175.085 14.8631 175.247 15.0134 175.433 15.1279C175.619 15.2425 175.825 15.3191 176.041 15.3534C176.257 15.3876 176.477 15.3788 176.689 15.3275C176.902 15.2762 177.102 15.1834 177.278 15.0543L182.476 11.3242ZM170.249 10.2698C170.182 10.6606 170.257 11.0626 170.462 11.4024C170.666 11.7423 170.985 11.9975 171.362 12.1215C171.775 12.2602 172.226 12.2304 172.617 12.0385C173.008 11.8466 173.308 11.5081 173.451 11.0966L175.457 4.8997C175.576 4.48658 175.529 4.04352 175.326 3.66435C175.124 3.28518 174.782 2.99967 174.373 2.86828C173.956 2.73464 173.504 2.77114 173.115 2.96979C172.726 3.16843 172.431 3.51309 172.295 3.92846L170.299 10.06L170.249 10.2698ZM167.982 9.99343L166.007 3.86767C165.892 3.51558 165.662 3.2123 165.354 3.00642C165.046 2.80053 164.678 2.70396 164.308 2.73217C163.939 2.76038 163.59 2.91173 163.317 3.16199C163.044 3.41225 162.862 3.74693 162.802 4.11241C162.757 4.36815 162.779 4.63125 162.865 4.87614L164.837 11.0182C164.9 11.2306 165.004 11.4283 165.144 11.5997C165.284 11.771 165.457 11.9125 165.653 12.0157C165.849 12.1189 166.064 12.1818 166.284 12.2006C166.505 12.2194 166.727 12.1937 166.937 12.1251C167.148 12.0565 167.342 11.9464 167.509 11.8013C167.677 11.6561 167.813 11.4789 167.91 11.2801C168.008 11.0813 168.064 10.865 168.076 10.644C168.089 10.423 168.056 10.2018 167.982 9.99343ZM174.906 23.2367C174.754 23.4523 174.652 23.6993 174.607 23.9596C174.56 24.2615 174.598 24.5704 174.715 24.8523C174.833 25.1341 175.027 25.3778 175.275 25.5564L180.468 29.3459C180.645 29.4803 180.847 29.5777 181.062 29.6323C181.278 29.6869 181.502 29.6975 181.721 29.6636C181.941 29.6297 182.151 29.5519 182.34 29.4349C182.529 29.3179 182.692 29.1641 182.82 28.9826C183.076 28.6297 183.183 28.19 183.116 27.7592C183.05 27.3284 182.816 26.9412 182.466 26.6818L177.223 22.8845C177.048 22.7551 176.849 22.6615 176.638 22.6091C176.426 22.5568 176.207 22.5467 175.992 22.5794C175.776 22.6121 175.57 22.687 175.383 22.7998C175.197 22.9126 175.035 23.0611 174.906 23.2367ZM176.324 18.7385L176.283 18.9999C176.282 19.2179 176.326 19.4338 176.409 19.6351C176.493 19.8365 176.616 20.0193 176.77 20.173C176.925 20.3268 177.108 20.4484 177.31 20.531C177.512 20.6136 177.728 20.6555 177.946 20.6543L184.378 20.6542C184.598 20.6539 184.816 20.6104 185.019 20.5259C185.222 20.4415 185.406 20.3179 185.562 20.1622C185.717 20.0064 185.84 19.8216 185.924 19.6183C186.008 19.4149 186.051 19.197 186.051 18.977C186.051 18.757 186.007 18.5392 185.923 18.3361C185.838 18.1329 185.715 17.9484 185.559 17.793C185.403 17.6376 185.219 17.5144 185.015 17.4305C184.812 17.3465 184.594 17.3034 184.374 17.3037L177.97 17.3417C177.574 17.3389 177.19 17.4784 176.888 17.7347C176.586 17.9911 176.386 18.3472 176.324 18.7385Z" fill="#DA004C"/>
</svg>
