<svg width="20" height="19" viewBox="0 0 20 19" fill="none" xmlns="http://www.w3.org/2000/svg">
<path d="M0 2.20343C0 1.56474 0.223543 1.03784 0.67061 0.62271C1.11768 0.207563 1.69889 0 2.4142 0C3.11675 0 3.68516 0.204364 4.11946 0.613129C4.56653 1.03466 4.79007 1.5839 4.79007 2.26091C4.79007 2.87404 4.57293 3.38497 4.13862 3.79374C3.69156 4.21526 3.10397 4.42603 2.37588 4.42603H2.35672C1.65417 4.42603 1.08576 4.21526 0.65145 3.79374C0.217144 3.37221 0 2.8421 0 2.20343ZM0.249084 18.9687V6.16961H4.50267V18.9687H0.249084ZM6.85939 18.9687H11.113V11.8219C11.113 11.3748 11.1641 11.0299 11.2663 10.7872C11.4451 10.3529 11.7165 9.98569 12.0806 9.68553C12.4446 9.38534 12.9013 9.23526 13.4505 9.23526C14.8812 9.23526 15.5965 10.1997 15.5965 12.1285V18.9687H19.8501V11.6303C19.8501 9.73981 19.403 8.30599 18.5088 7.32881C17.6147 6.35164 16.4332 5.86305 14.9642 5.86305C13.3164 5.86305 12.0327 6.57198 11.113 7.98984V8.02816H11.0938L11.113 7.98984V6.16961H6.85939C6.88493 6.57836 6.89771 7.84932 6.89771 9.98251C6.89771 12.1157 6.88493 15.1111 6.85939 18.9687Z" fill="white"/>
</svg>
