<svg width="170" height="25" viewBox="0 0 170 25" fill="none" xmlns="http://www.w3.org/2000/svg">
<path d="M4.47568 9.38652V24.1757H0V1.14868H3.56757L15.4703 16.3271V1.18111H19.9459V24.1757H16.2162L4.47568 9.38652Z" fill="#111111"/>
<path d="M31.9105 24.5C30.5483 24.5 29.3159 24.273 28.2132 23.819C27.1105 23.3433 26.1699 22.7054 25.3916 21.9054C24.6132 21.0838 24.0078 20.1541 23.5753 19.1163C23.1645 18.0568 22.9591 16.9433 22.9591 15.7757C22.9591 14.1541 23.3159 12.673 24.0294 11.3325C24.7645 9.99193 25.8024 8.92166 27.1429 8.12165C28.5051 7.30003 30.1051 6.88922 31.9429 6.88922C33.8024 6.88922 35.3916 7.30003 36.7105 8.12165C38.0294 8.92166 39.0348 9.99193 39.7267 11.3325C40.4402 12.6514 40.797 14.0784 40.797 15.6135C40.797 15.873 40.7862 16.1433 40.7645 16.4244C40.7429 16.6838 40.7213 16.9 40.6997 17.073H27.5645C27.651 17.9379 27.8997 18.6946 28.3105 19.3433C28.7429 19.9919 29.2834 20.4892 29.9321 20.8352C30.6024 21.1595 31.3159 21.3217 32.0726 21.3217C32.9375 21.3217 33.7483 21.1163 34.5051 20.7054C35.2834 20.273 35.8132 19.7108 36.0943 19.019L39.824 20.0568C39.4132 20.9217 38.8186 21.6892 38.0402 22.3595C37.2834 23.0298 36.3862 23.5595 35.3483 23.9487C34.3105 24.3162 33.1645 24.5 31.9105 24.5ZM27.4672 14.3163H36.3537C36.2672 13.4514 36.0186 12.7054 35.6078 12.0784C35.2186 11.4298 34.6997 10.9325 34.051 10.5865C33.4024 10.219 32.678 10.0352 31.878 10.0352C31.0997 10.0352 30.3862 10.219 29.7375 10.5865C29.1105 10.9325 28.5916 11.4298 28.1807 12.0784C27.7916 12.7054 27.5537 13.4514 27.4672 14.3163Z" fill="#111111"/>
<path d="M88.3302 7.18108C88.1789 7.02973 87.8978 6.82432 87.487 6.56486C87.0978 6.30541 86.6113 6.05676 86.0275 5.81892C85.4654 5.58108 84.8491 5.37568 84.1789 5.2027C83.5086 5.00811 82.8275 4.91081 82.1356 4.91081C80.9248 4.91081 80.0059 5.13784 79.3789 5.59189C78.7735 6.04595 78.4708 6.68378 78.4708 7.50541C78.4708 8.13243 78.6654 8.62973 79.0545 8.9973C79.4437 9.36486 80.0275 9.67838 80.8059 9.93784C81.5843 10.1973 82.5572 10.4784 83.7248 10.7811C85.2383 11.1486 86.5464 11.6027 87.6491 12.1432C88.7735 12.6622 89.6275 13.3541 90.2113 14.2189C90.8167 15.0622 91.1194 16.1865 91.1194 17.5919C91.1194 18.8243 90.8924 19.8838 90.4383 20.7703C89.9843 21.6351 89.3572 22.3378 88.5572 22.8784C87.7572 23.4189 86.8491 23.8189 85.8329 24.0784C84.8167 24.3162 83.7356 24.4351 82.5897 24.4351C81.4437 24.4351 80.2978 24.3162 79.1518 24.0784C78.0059 23.8405 76.9032 23.5054 75.8437 23.073C74.7843 22.6189 73.8113 22.0784 72.9248 21.4514L74.9032 17.5919C75.0978 17.7865 75.4437 18.0459 75.941 18.3703C76.4383 18.673 77.0437 18.9865 77.7572 19.3108C78.4708 19.6135 79.2491 19.873 80.0924 20.0892C80.9356 20.3054 81.7897 20.4135 82.6545 20.4135C83.8654 20.4135 84.7843 20.2081 85.4113 19.7973C86.0383 19.3865 86.3518 18.8027 86.3518 18.0459C86.3518 17.3541 86.1032 16.8135 85.6059 16.4243C85.1086 16.0351 84.4167 15.7 83.5302 15.4189C82.6437 15.1162 81.5951 14.7919 80.3843 14.4459C78.9356 14.0351 77.7248 13.5811 76.7518 13.0838C75.7789 12.5649 75.0545 11.9162 74.5789 11.1378C74.1032 10.3595 73.8653 9.38649 73.8653 8.21892C73.8653 6.64054 74.2329 5.32162 74.968 4.26216C75.7248 3.18108 76.741 2.37027 78.0167 1.82973C79.2924 1.26757 80.7086 0.986486 82.2654 0.986486C83.3464 0.986486 84.3626 1.1054 85.314 1.34324C86.287 1.58108 87.1951 1.89459 88.0383 2.28378C88.8816 2.67297 89.6383 3.09459 90.3086 3.54865L88.3302 7.18108Z" fill="#111111"/>
<path d="M103.884 23.3C103.516 23.4514 103.073 23.6243 102.554 23.8189C102.035 24.0135 101.473 24.1649 100.867 24.273C100.284 24.4027 99.689 24.4676 99.0836 24.4676C98.2836 24.4676 97.5485 24.327 96.8782 24.0459C96.2079 23.7649 95.6674 23.3216 95.2566 22.7162C94.8674 22.0892 94.6728 21.2784 94.6728 20.2838V10.5216H92.4349V7.18108H94.6728V1.66757H99.0187V7.18108H102.586V10.5216H99.0187V18.8243C99.0404 19.4081 99.2025 19.8297 99.5052 20.0892C99.8079 20.3486 100.186 20.4784 100.64 20.4784C101.094 20.4784 101.538 20.4027 101.97 20.2514C102.403 20.1 102.748 19.9703 103.008 19.8622L103.884 23.3Z" fill="#111111"/>
<path d="M104.979 19.1487C104.979 18.0459 105.282 17.0838 105.888 16.2622C106.515 15.4189 107.379 14.7703 108.482 14.3162C109.585 13.8622 110.85 13.6351 112.277 13.6351C112.99 13.6351 113.715 13.6892 114.45 13.7973C115.185 13.9054 115.823 14.0784 116.363 14.3162V13.4081C116.363 12.327 116.039 11.4946 115.39 10.9108C114.763 10.327 113.823 10.0351 112.569 10.0351C111.639 10.0351 110.752 10.1973 109.909 10.5216C109.066 10.8459 108.179 11.3216 107.25 11.9486L105.855 9.09459C106.979 8.35946 108.125 7.80811 109.293 7.44054C110.482 7.07297 111.725 6.88919 113.023 6.88919C115.444 6.88919 117.325 7.49459 118.666 8.70541C120.028 9.91622 120.709 11.6459 120.709 13.8946V19.3108C120.709 19.7649 120.785 20.0892 120.936 20.2838C121.109 20.4784 121.379 20.5973 121.747 20.6405V24.1757C121.358 24.2405 121.001 24.2946 120.677 24.3378C120.374 24.3811 120.115 24.4027 119.898 24.4027C119.034 24.4027 118.374 24.2081 117.92 23.8189C117.488 23.4297 117.217 22.9541 117.109 22.3919L117.012 21.5162C116.277 22.4676 115.358 23.2027 114.255 23.7216C113.152 24.2405 112.028 24.5 110.882 24.5C109.758 24.5 108.742 24.273 107.834 23.8189C106.947 23.3432 106.244 22.7054 105.725 21.9054C105.228 21.0838 104.979 20.1649 104.979 19.1487ZM115.552 20.0243C115.79 19.7649 115.985 19.5054 116.136 19.2459C116.288 18.9865 116.363 18.7486 116.363 18.5324V16.8135C115.844 16.5973 115.282 16.4351 114.677 16.327C114.071 16.1973 113.498 16.1324 112.958 16.1324C111.834 16.1324 110.904 16.3811 110.169 16.8784C109.455 17.3541 109.098 17.9919 109.098 18.7919C109.098 19.2243 109.217 19.6351 109.455 20.0243C109.693 20.4135 110.039 20.727 110.493 20.9649C110.947 21.2027 111.488 21.3216 112.115 21.3216C112.763 21.3216 113.401 21.2027 114.028 20.9649C114.655 20.7054 115.163 20.3919 115.552 20.0243Z" fill="#111111"/>
<path d="M132.684 24.5C131.3 24.5 130.057 24.273 128.954 23.8189C127.851 23.3432 126.911 22.6946 126.132 21.873C125.354 21.0297 124.749 20.0784 124.316 19.0189C123.905 17.9595 123.7 16.8459 123.7 15.6784C123.7 14.0784 124.057 12.6189 124.77 11.3C125.505 9.95946 126.543 8.88919 127.884 8.08919C129.224 7.28919 130.814 6.88919 132.651 6.88919C134.489 6.88919 136.068 7.28919 137.387 8.08919C138.705 8.88919 139.689 9.93784 140.338 11.2351L136.089 12.5324C135.722 11.9054 135.235 11.4297 134.63 11.1054C134.024 10.7595 133.354 10.5865 132.619 10.5865C131.797 10.5865 131.041 10.8027 130.349 11.2351C129.678 11.6459 129.149 12.2405 128.76 13.0189C128.37 13.7757 128.176 14.6622 128.176 15.6784C128.176 16.673 128.37 17.5595 128.76 18.3378C129.17 19.0946 129.711 19.7 130.381 20.1541C131.051 20.5865 131.797 20.8027 132.619 20.8027C133.138 20.8027 133.624 20.7162 134.078 20.5432C134.554 20.3703 134.976 20.1324 135.343 19.8297C135.711 19.527 135.981 19.1811 136.154 18.7919L140.403 20.0892C140.014 20.9324 139.441 21.6892 138.684 22.3595C137.949 23.0297 137.073 23.5595 136.057 23.9486C135.062 24.3162 133.938 24.5 132.684 24.5Z" fill="#111111"/>
<path d="M154.688 24.1757L149.726 16.8459L147.423 19.1162V24.1757H143.077V0.5H147.423V14.8351L154.266 7.21351H158.872L152.547 14.4135L159.326 24.1757H154.688Z" fill="#111111"/>
<path d="M45.3005 4.9061L48.9922 1.05569C49.8533 0.157643 51.3435 0.380364 51.9044 1.49092L55.7179 9.0419C56.5282 10.6464 54.8172 12.3531 53.2148 11.5386L45.7852 7.76253C44.7062 7.21414 44.4628 5.77974 45.3005 4.9061Z" fill="#DA004C"/>
<path fill-rule="evenodd" clip-rule="evenodd" d="M45.9626 19.4539L49.5332 23.2751C49.9404 23.7109 50.6549 23.6197 50.9395 23.0955L54.9886 15.638C55.4213 14.8411 54.5742 13.9594 53.7606 14.3598L46.2152 18.0734C45.6892 18.3323 45.5623 19.0255 45.9626 19.4539ZM45.2831 20.0889L48.8536 23.9101C49.6943 24.8098 51.1693 24.6214 51.7568 23.5393L55.8059 16.0818C56.6713 14.488 54.9771 12.7245 53.3499 13.5254L45.8045 17.2389C44.7186 17.7734 44.4567 19.2045 45.2831 20.0889Z" fill="#E86E04"/>
<path fill-rule="evenodd" clip-rule="evenodd" d="M63.7411 23.3006L67.4329 19.4502C67.8386 19.027 67.7207 18.3322 67.198 18.0666L59.7685 14.2905C58.9672 13.8833 58.1118 14.7366 58.5169 15.5388L62.3304 23.0898C62.6021 23.6278 63.324 23.7357 63.7411 23.3006ZM60.1899 13.4614C58.5874 12.6469 56.8764 14.3536 57.6867 15.9581L61.5002 23.5091C62.0611 24.6196 63.5513 24.8424 64.4124 23.9443L68.1042 20.0939C68.9418 19.2203 68.6984 17.7859 67.6194 17.2375L60.1899 13.4614Z" fill="#DA004C"/>
<path fill-rule="evenodd" clip-rule="evenodd" d="M61.9649 1.52067C62.5524 0.438578 64.0275 0.250173 64.8681 1.14984L68.4387 4.97105C69.265 5.8554 69.0032 7.28655 67.9172 7.82101L60.3719 11.5346C58.7447 12.3354 57.0505 10.5719 57.9158 8.97814L61.9649 1.52067Z" fill="#E86E04"/>
<circle cx="166.326" cy="21.5" r="3" fill="#DA004C"/>
</svg>
