<svg width="53" height="54" viewBox="0 0 53 54" fill="none" xmlns="http://www.w3.org/2000/svg">
<circle cx="26.5" cy="26.5107" r="26.5" fill="#E86E04"/>
<path d="M19.25 18C18.6533 18 18.081 18.2371 17.659 18.659C17.2371 19.081 17 19.6533 17 20.25V21.75C17 21.9489 16.921 22.1397 16.7803 22.2803C16.6397 22.421 16.4489 22.5 16.25 22.5C16.0511 22.5 15.8603 22.421 15.7197 22.2803C15.579 22.1397 15.5 21.9489 15.5 21.75V20.25C15.5 19.2554 15.8951 18.3016 16.5983 17.5983C17.3016 16.8951 18.2554 16.5 19.25 16.5H20.75C20.9489 16.5 21.1397 16.579 21.2803 16.7197C21.421 16.8603 21.5 17.0511 21.5 17.25C21.5 17.4489 21.421 17.6397 21.2803 17.7803C21.1397 17.921 20.9489 18 20.75 18H19.25ZM23.75 22.5C23.1533 22.5 22.581 22.7371 22.159 23.159C21.7371 23.581 21.5 24.1533 21.5 24.75V29.25C21.5 29.8467 21.7371 30.419 22.159 30.841C22.581 31.2629 23.1533 31.5 23.75 31.5H28.25C28.8467 31.5 29.419 31.2629 29.841 30.841C30.2629 30.419 30.5 29.8467 30.5 29.25V24.75C30.5 24.1533 30.2629 23.581 29.841 23.159C29.419 22.7371 28.8467 22.5 28.25 22.5H23.75ZM32.75 18C33.3467 18 33.919 18.2371 34.341 18.659C34.7629 19.081 35 19.6533 35 20.25V21.75C35 21.9489 35.079 22.1397 35.2197 22.2803C35.3603 22.421 35.5511 22.5 35.75 22.5C35.9489 22.5 36.1397 22.421 36.2803 22.2803C36.421 22.1397 36.5 21.9489 36.5 21.75V20.25C36.5 19.2554 36.1049 18.3016 35.4016 17.5983C34.6984 16.8951 33.7446 16.5 32.75 16.5H31.25C31.0511 16.5 30.8603 16.579 30.7197 16.7197C30.579 16.8603 30.5 17.0511 30.5 17.25C30.5 17.4489 30.579 17.6397 30.7197 17.7803C30.8603 17.921 31.0511 18 31.25 18H32.75ZM32.75 36C33.3467 36 33.919 35.7629 34.341 35.341C34.7629 34.919 35 34.3467 35 33.75V32.25C35 32.0511 35.079 31.8603 35.2197 31.7197C35.3603 31.579 35.5511 31.5 35.75 31.5C35.9489 31.5 36.1397 31.579 36.2803 31.7197C36.421 31.8603 36.5 32.0511 36.5 32.25V33.75C36.5 34.7446 36.1049 35.6984 35.4016 36.4016C34.6984 37.1049 33.7446 37.5 32.75 37.5H31.25C31.0511 37.5 30.8603 37.421 30.7197 37.2803C30.579 37.1397 30.5 36.9489 30.5 36.75C30.5 36.5511 30.579 36.3603 30.7197 36.2197C30.8603 36.079 31.0511 36 31.25 36H32.75ZM19.25 36C18.6533 36 18.081 35.7629 17.659 35.341C17.2371 34.919 17 34.3467 17 33.75V31.875C17 31.6761 16.921 31.4853 16.7803 31.3447C16.6397 31.204 16.4489 31.125 16.25 31.125C16.0511 31.125 15.8603 31.204 15.7197 31.3447C15.579 31.4853 15.5 31.6761 15.5 31.875V33.75C15.5 34.7446 15.8951 35.6984 16.5983 36.4016C17.3016 37.1049 18.2554 37.5 19.25 37.5H21.125C21.3239 37.5 21.5147 37.421 21.6553 37.2803C21.796 37.1397 21.875 36.9489 21.875 36.75C21.875 36.5511 21.796 36.3603 21.6553 36.2197C21.5147 36.079 21.3239 36 21.125 36H19.25Z" fill="white"/>
</svg>
