<svg width="53" height="54" viewBox="0 0 53 54" fill="none" xmlns="http://www.w3.org/2000/svg">
<circle cx="26.5" cy="26.5107" r="26.5" fill="#111111"/>
<path d="M26 27C25.15 27 24.4373 26.7123 23.862 26.137C23.2867 25.5617 22.9993 24.8493 23 24C23 23.1667 23.2877 22.4583 23.863 21.875C24.4383 21.2917 25.1507 21 26 21C26.8333 21 27.5417 21.2917 28.125 21.875C28.7083 22.4583 29 23.1667 29 24C29 24.85 28.7083 25.5627 28.125 26.138C27.5417 26.7133 26.8333 27.0007 26 27ZM26 25C26.2833 25 26.521 24.904 26.713 24.712C26.905 24.52 27.0007 24.2827 27 24C27 23.7167 26.904 23.479 26.712 23.287C26.52 23.095 26.2827 22.9993 26 23C25.7167 23 25.479 23.096 25.287 23.288C25.095 23.48 24.9993 23.7173 25 24C25 24.2833 25.096 24.521 25.288 24.713C25.48 24.905 25.7173 25.0007 26 25ZM20 33V31.1C20 30.75 20.0877 30.4207 20.263 30.112C20.4383 29.8033 20.6757 29.5577 20.975 29.375C21.7417 28.925 22.546 28.5833 23.388 28.35C24.23 28.1167 25.1007 28 26 28C26.9 28 27.771 28.1167 28.613 28.35C29.455 28.5833 30.259 28.925 31.025 29.375C31.325 29.5583 31.5627 29.8043 31.738 30.113C31.9133 30.4217 32.0007 30.7507 32 31.1V33H20ZM26 30C25.3167 30 24.65 30.0833 24 30.25C23.35 30.4167 22.7333 30.6667 22.15 31H29.85C29.2667 30.6667 28.65 30.4167 28 30.25C27.35 30.0833 26.6833 30 26 30ZM26 31H29.85H22.15H26ZM18 37C17.45 37 16.979 36.804 16.587 36.412C16.195 36.02 15.9993 35.5493 16 35V31H18V35H22V37H18ZM16 23V19C16 18.45 16.196 17.979 16.588 17.587C16.98 17.195 17.4507 16.9993 18 17H22V19H18V23H16ZM30 37V35H34V31H36V35C36 35.55 35.804 36.021 35.412 36.413C35.02 36.805 34.5493 37.0007 34 37H30ZM34 23V19H30V17H34C34.55 17 35.021 17.196 35.413 17.588C35.805 17.98 36.0007 18.4507 36 19V23H34Z" fill="white"/>
</svg>
