<svg width="53" height="53" viewBox="0 0 53 53" fill="none" xmlns="http://www.w3.org/2000/svg">
<circle cx="26.5" cy="26.5" r="26.5" fill="#DA004C"/>
<path d="M14.3336 19.7083C14.3336 18.8574 14.6716 18.0414 15.2733 17.4397C15.875 16.838 16.691 16.5 17.5419 16.5H34.4586C35.3095 16.5 36.1255 16.838 36.7272 17.4397C37.3289 18.0414 37.6669 18.8574 37.6669 19.7083V30.7917C37.6669 31.6426 37.3289 32.4586 36.7272 33.0603C36.1255 33.662 35.3095 34 34.4586 34H23.6669V32.8333C23.8069 32.6467 23.9353 32.453 24.0531 32.25H34.4586C35.2636 32.25 35.9169 31.5967 35.9169 30.7917V19.7083C35.9169 18.9033 35.2636 18.25 34.4586 18.25H17.5419C16.7369 18.25 16.0836 18.9033 16.0836 19.7083V24.2805C15.402 24.6749 14.8068 25.2027 14.3336 25.8322V19.7083ZM19.8753 21.1667C19.6432 21.1667 19.4206 21.2589 19.2565 21.4229C19.0924 21.587 19.0003 21.8096 19.0003 22.0417C19.0003 22.2737 19.0924 22.4963 19.2565 22.6604C19.4206 22.8245 19.6432 22.9167 19.8753 22.9167H32.1253C32.3573 22.9167 32.5799 22.8245 32.744 22.6604C32.9081 22.4963 33.0003 22.2737 33.0003 22.0417C33.0003 21.8096 32.9081 21.587 32.744 21.4229C32.5799 21.2589 32.3573 21.1667 32.1253 21.1667H19.8753ZM26.8753 27C26.6432 27 26.4206 27.0922 26.2565 27.2563C26.0924 27.4204 26.0003 27.6429 26.0003 27.875C26.0003 28.1071 26.0924 28.3296 26.2565 28.4937C26.4206 28.6578 26.6432 28.75 26.8753 28.75H32.1253C32.3573 28.75 32.5799 28.6578 32.744 28.4937C32.9081 28.3296 33.0003 28.1071 33.0003 27.875C33.0003 27.6429 32.9081 27.4204 32.744 27.2563C32.5799 27.0922 32.3573 27 32.1253 27H26.8753ZM19.0003 24.6667C17.7624 24.6667 16.5753 25.1584 15.7 26.0337C14.8247 26.909 14.333 28.0961 14.333 29.3339C14.333 30.5717 14.8247 31.7589 15.7 32.6342C16.5753 33.5094 17.7624 34.0012 19.0003 34.0012C20.2381 34.0012 21.4252 33.5094 22.3005 32.6342C23.1758 31.7589 23.6675 30.5717 23.6675 29.3339C23.6675 28.0961 23.1758 26.909 22.3005 26.0337C21.4252 25.1584 20.2381 24.6667 19.0003 24.6667ZM22.5003 34.0012C21.5261 34.7338 20.3139 35.1678 19.0003 35.1678C17.7381 35.1704 16.5094 34.7616 15.5003 34.0035V37.7905C15.5003 38.4555 16.2061 38.8638 16.7719 38.571L16.8769 38.5068L19.0003 37.0228L21.1236 38.5068C21.2462 38.5925 21.3887 38.6452 21.5376 38.6601C21.6864 38.6749 21.8365 38.6514 21.9737 38.5917C22.1108 38.5321 22.2304 38.4382 22.3209 38.3192C22.4115 38.2002 22.47 38.0599 22.4909 37.9118L22.5003 37.7905L22.5014 34L22.5003 34.0012Z" fill="white"/>
</svg>
