<svg width="23" height="19" viewBox="0 0 23 19" fill="none" xmlns="http://www.w3.org/2000/svg">
<path d="M23 2.24319C22.1356 2.6182 21.2214 2.8661 20.286 2.97919C21.2729 2.38961 22.0125 1.46209 22.3675 0.36869C21.4401 0.920763 20.4249 1.30973 19.366 1.51869C18.6582 0.751148 17.7157 0.240231 16.6863 0.0660695C15.6568 -0.108092 14.5987 0.0643525 13.6779 0.556358C12.757 1.04836 12.0255 1.8321 11.598 2.78465C11.1706 3.7372 11.0714 4.80469 11.316 5.81969C9.44084 5.72485 7.60661 5.23659 5.93245 4.38663C4.2583 3.53668 2.78167 2.34404 1.5985 0.88619C1.18351 1.61088 0.965447 2.43159 0.966 3.26669C0.964528 4.04223 1.15485 4.8061 1.52002 5.49029C1.88519 6.17448 2.41387 6.75776 3.059 7.18819C2.30917 7.16779 1.57537 6.96658 0.92 6.60169V6.65919C0.92562 7.74582 1.30639 8.79715 1.99791 9.63535C2.68943 10.4736 3.64924 11.0472 4.715 11.2592C4.30474 11.384 3.87881 11.4499 3.45 11.4547C3.15317 11.4512 2.85709 11.4243 2.5645 11.3742C2.868 12.3089 3.45532 13.1258 4.24474 13.7112C5.03416 14.2965 5.98641 14.6213 6.969 14.6402C5.30978 15.9457 3.26127 16.6583 1.15 16.6642C0.765595 16.6655 0.381496 16.6424 0 16.5952C2.15559 17.987 4.66763 18.7258 7.2335 18.7227C9.00415 18.7411 10.7607 18.4065 12.4006 17.7384C14.0405 17.0703 15.5308 16.0822 16.7845 14.8317C18.0382 13.5812 19.0302 12.0934 19.7024 10.4552C20.3747 8.81707 20.7138 7.06138 20.7 5.29069C20.7 5.09519 20.7 4.88819 20.7 4.68119C21.6024 4.00822 22.3807 3.18323 23 2.24319Z" fill="white"/>
</svg>
