<svg width="170" height="24" viewBox="0 0 170 24" fill="none" xmlns="http://www.w3.org/2000/svg">
<path d="M4.47568 8.88628V23.6755H0V0.648438H3.56757L15.4703 15.8268V0.68087H19.9459V23.6755H16.2162L4.47568 8.88628Z" fill="white"/>
<path d="M31.9105 23.9998C30.5483 23.9998 29.3159 23.7728 28.2132 23.3187C27.1105 22.843 26.1699 22.2052 25.3916 21.4052C24.6132 20.5836 24.0078 19.6538 23.5753 18.616C23.1645 17.5565 22.9591 16.443 22.9591 15.2755C22.9591 13.6538 23.3159 12.1728 24.0294 10.8322C24.7645 9.49168 25.8024 8.42141 27.1429 7.62141C28.5051 6.79979 30.1051 6.38898 31.9429 6.38898C33.8024 6.38898 35.3916 6.79979 36.7105 7.62141C38.0294 8.42141 39.0348 9.49168 39.7267 10.8322C40.4402 12.1511 40.797 13.5782 40.797 15.1133C40.797 15.3728 40.7862 15.643 40.7645 15.9241C40.7429 16.1836 40.7213 16.3998 40.6997 16.5728H27.5645C27.651 17.4376 27.8997 18.1944 28.3105 18.843C28.7429 19.4917 29.2834 19.989 29.9321 20.3349C30.6024 20.6593 31.3159 20.8214 32.0726 20.8214C32.9375 20.8214 33.7483 20.616 34.5051 20.2052C35.2834 19.7728 35.8132 19.2106 36.0943 18.5187L39.824 19.5565C39.4132 20.4214 38.8186 21.189 38.0402 21.8593C37.2834 22.5295 36.3862 23.0592 35.3483 23.4484C34.3105 23.816 33.1645 23.9998 31.9105 23.9998ZM27.4672 13.816H36.3537C36.2672 12.9511 36.0186 12.2052 35.6078 11.5782C35.2186 10.9295 34.6997 10.4322 34.051 10.0863C33.4024 9.71871 32.678 9.53492 31.878 9.53492C31.0997 9.53492 30.3862 9.71871 29.7375 10.0863C29.1105 10.4322 28.5916 10.9295 28.1807 11.5782C27.7916 12.2052 27.5537 12.9511 27.4672 13.816Z" fill="white"/>
<path d="M88.3312 6.68108C88.1798 6.52973 87.8988 6.32432 87.4879 6.06486C87.0988 5.80541 86.6123 5.55676 86.0285 5.31892C85.4663 5.08108 84.8501 4.87568 84.1798 4.7027C83.5096 4.50811 82.8285 4.41081 82.1366 4.41081C80.9258 4.41081 80.0069 4.63784 79.3798 5.09189C78.7744 5.54595 78.4717 6.18378 78.4717 7.00541C78.4717 7.63243 78.6663 8.12973 79.0555 8.4973C79.4447 8.86486 80.0285 9.17838 80.8069 9.43784C81.5852 9.6973 82.5582 9.97838 83.7258 10.2811C85.2393 10.6486 86.5474 11.1027 87.6501 11.6432C88.7744 12.1622 89.6285 12.8541 90.2123 13.7189C90.8177 14.5622 91.1204 15.6865 91.1204 17.0919C91.1204 18.3243 90.8933 19.3838 90.4393 20.2703C89.9852 21.1351 89.3582 21.8378 88.5582 22.3784C87.7582 22.9189 86.8501 23.3189 85.8339 23.5784C84.8177 23.8162 83.7366 23.9351 82.5907 23.9351C81.4447 23.9351 80.2988 23.8162 79.1528 23.5784C78.0069 23.3405 76.9042 23.0054 75.8447 22.573C74.7853 22.1189 73.8123 21.5784 72.9258 20.9514L74.9042 17.0919C75.0988 17.2865 75.4447 17.5459 75.942 17.8703C76.4393 18.173 77.0447 18.4865 77.7582 18.8108C78.4717 19.1135 79.2501 19.373 80.0934 19.5892C80.9366 19.8054 81.7907 19.9135 82.6555 19.9135C83.8663 19.9135 84.7852 19.7081 85.4123 19.2973C86.0393 18.8865 86.3528 18.3027 86.3528 17.5459C86.3528 16.8541 86.1042 16.3135 85.6069 15.9243C85.1096 15.5351 84.4177 15.2 83.5312 14.9189C82.6447 14.6162 81.5961 14.2919 80.3852 13.9459C78.9366 13.5351 77.7258 13.0811 76.7528 12.5838C75.7798 12.0649 75.0555 11.4162 74.5798 10.6378C74.1042 9.85946 73.8663 8.88649 73.8663 7.71892C73.8663 6.14054 74.2339 4.82162 74.969 3.76216C75.7258 2.68108 76.742 1.87027 78.0177 1.32973C79.2934 0.767567 80.7096 0.486486 82.2663 0.486486C83.3474 0.486486 84.3636 0.605405 85.315 0.843242C86.2879 1.08108 87.1961 1.39459 88.0393 1.78378C88.8825 2.17297 89.6393 2.59459 90.3096 3.04865L88.3312 6.68108Z" fill="white"/>
<path d="M103.885 22.8C103.517 22.9514 103.074 23.1243 102.555 23.3189C102.036 23.5135 101.474 23.6649 100.868 23.773C100.285 23.9027 99.69 23.9676 99.0846 23.9676C98.2846 23.9676 97.5494 23.827 96.8792 23.5459C96.2089 23.2649 95.6684 22.8216 95.2575 22.2162C94.8684 21.5892 94.6738 20.7784 94.6738 19.7838V10.0216H92.4359V6.68108H94.6738V1.16757H99.0197V6.68108H102.587V10.0216H99.0197V18.3243C99.0413 18.9081 99.2035 19.3297 99.5062 19.5892C99.8089 19.8486 100.187 19.9784 100.641 19.9784C101.095 19.9784 101.539 19.9027 101.971 19.7514C102.403 19.6 102.749 19.4703 103.009 19.3622L103.885 22.8Z" fill="white"/>
<path d="M104.98 18.6487C104.98 17.5459 105.283 16.5838 105.889 15.7622C106.516 14.9189 107.38 14.2703 108.483 13.8162C109.586 13.3622 110.851 13.1351 112.278 13.1351C112.991 13.1351 113.716 13.1892 114.451 13.2973C115.186 13.4054 115.824 13.5784 116.364 13.8162V12.9081C116.364 11.827 116.04 10.9946 115.391 10.4108C114.764 9.82703 113.824 9.53514 112.57 9.53514C111.64 9.53514 110.753 9.6973 109.91 10.0216C109.067 10.3459 108.18 10.8216 107.251 11.4486L105.856 8.59459C106.98 7.85946 108.126 7.30811 109.294 6.94054C110.483 6.57297 111.726 6.38919 113.024 6.38919C115.445 6.38919 117.326 6.99459 118.667 8.20541C120.029 9.41622 120.71 11.1459 120.71 13.3946V18.8108C120.71 19.2649 120.786 19.5892 120.937 19.7838C121.11 19.9784 121.38 20.0973 121.748 20.1405V23.6757C121.359 23.7405 121.002 23.7946 120.678 23.8378C120.375 23.8811 120.116 23.9027 119.899 23.9027C119.034 23.9027 118.375 23.7081 117.921 23.3189C117.489 22.9297 117.218 22.4541 117.11 21.8919L117.013 21.0162C116.278 21.9676 115.359 22.7027 114.256 23.2216C113.153 23.7405 112.029 24 110.883 24C109.759 24 108.743 23.773 107.834 23.3189C106.948 22.8432 106.245 22.2054 105.726 21.4054C105.229 20.5838 104.98 19.6649 104.98 18.6487ZM115.553 19.5243C115.791 19.2649 115.986 19.0054 116.137 18.7459C116.289 18.4865 116.364 18.2486 116.364 18.0324V16.3135C115.845 16.0973 115.283 15.9351 114.678 15.827C114.072 15.6973 113.499 15.6324 112.959 15.6324C111.834 15.6324 110.905 15.8811 110.17 16.3784C109.456 16.8541 109.099 17.4919 109.099 18.2919C109.099 18.7243 109.218 19.1351 109.456 19.5243C109.694 19.9135 110.04 20.227 110.494 20.4649C110.948 20.7027 111.489 20.8216 112.116 20.8216C112.764 20.8216 113.402 20.7027 114.029 20.4649C114.656 20.2054 115.164 19.8919 115.553 19.5243Z" fill="white"/>
<path d="M132.685 24C131.301 24 130.058 23.773 128.955 23.3189C127.852 22.8432 126.912 22.1946 126.133 21.373C125.355 20.5297 124.75 19.5784 124.317 18.5189C123.906 17.4595 123.701 16.3459 123.701 15.1784C123.701 13.5784 124.058 12.1189 124.771 10.8C125.506 9.45946 126.544 8.38919 127.885 7.58919C129.225 6.78919 130.815 6.38919 132.652 6.38919C134.49 6.38919 136.069 6.78919 137.388 7.58919C138.706 8.38919 139.69 9.43784 140.339 10.7351L136.09 12.0324C135.723 11.4054 135.236 10.9297 134.631 10.6054C134.025 10.2595 133.355 10.0865 132.62 10.0865C131.798 10.0865 131.042 10.3027 130.35 10.7351C129.679 11.1459 129.15 11.7405 128.761 12.5189C128.371 13.2757 128.177 14.1622 128.177 15.1784C128.177 16.173 128.371 17.0595 128.761 17.8378C129.171 18.5946 129.712 19.2 130.382 19.6541C131.052 20.0865 131.798 20.3027 132.62 20.3027C133.139 20.3027 133.625 20.2162 134.079 20.0432C134.555 19.8703 134.977 19.6324 135.344 19.3297C135.712 19.027 135.982 18.6811 136.155 18.2919L140.404 19.5892C140.015 20.4324 139.442 21.1892 138.685 21.8595C137.95 22.5297 137.074 23.0595 136.058 23.4486C135.063 23.8162 133.939 24 132.685 24Z" fill="white"/>
<path d="M154.689 23.6757L149.727 16.3459L147.424 18.6162V23.6757H143.078V0H147.424V14.3351L154.267 6.71351H158.872L152.548 13.9135L159.327 23.6757H154.689Z" fill="white"/>
<path d="M45.3005 4.4061L48.9922 0.555691C49.8533 -0.342357 51.3435 -0.119636 51.9044 0.990918L55.7179 8.5419C56.5282 10.1464 54.8172 11.8531 53.2148 11.0386L45.7852 7.26253C44.7062 6.71414 44.4628 5.27974 45.3005 4.4061Z" fill="#DA004C"/>
<path fill-rule="evenodd" clip-rule="evenodd" d="M45.9626 18.9539L49.5332 22.7751C49.9404 23.2109 50.6549 23.1197 50.9395 22.5955L54.9886 15.138C55.4213 14.3411 54.5742 13.4594 53.7606 13.8598L46.2152 17.5734C45.6892 17.8323 45.5623 18.5255 45.9626 18.9539ZM45.2831 19.5889L48.8536 23.4101C49.6943 24.3098 51.1693 24.1214 51.7568 23.0393L55.8059 15.5818C56.6713 13.988 54.9771 12.2245 53.3499 13.0254L45.8045 16.7389C44.7186 17.2734 44.4567 18.7045 45.2831 19.5889Z" fill="#E86E04"/>
<path fill-rule="evenodd" clip-rule="evenodd" d="M63.7411 22.8006L67.4329 18.9502C67.8386 18.527 67.7207 17.8322 67.198 17.5666L59.7685 13.7905C58.9672 13.3833 58.1118 14.2366 58.5169 15.0388L62.3304 22.5898C62.6021 23.1278 63.324 23.2357 63.7411 22.8006ZM60.1899 12.9614C58.5874 12.1469 56.8764 13.8536 57.6867 15.4581L61.5002 23.0091C62.0611 24.1196 63.5513 24.3424 64.4124 23.4443L68.1042 19.5939C68.9418 18.7203 68.6984 17.2859 67.6194 16.7375L60.1899 12.9614Z" fill="#DA004C"/>
<path fill-rule="evenodd" clip-rule="evenodd" d="M61.9649 1.02067C62.5524 -0.0614222 64.0275 -0.249827 64.8681 0.64984L68.4387 4.47105C69.265 5.3554 69.0032 6.78655 67.9172 7.32101L60.3719 11.0346C58.7447 11.8354 57.0505 10.0719 57.9158 8.47814L61.9649 1.02067Z" fill="#E86E04"/>
<circle cx="166.326" cy="21" r="3" fill="#DA004C"/>
</svg>
