<svg width="1512" height="200" viewBox="0 0 1512 200" fill="none" xmlns="http://www.w3.org/2000/svg">
<rect width="852.567" height="60" transform="matrix(0.998629 -0.052336 0.0540147 0.99854 691.389 139.524)" fill="#111111"/>
<path d="M895.814 158.153L902.617 155.019L905.987 148.329L909.121 155.132L915.811 158.502L909.008 161.637L905.638 168.326L902.503 161.523L895.814 158.153Z" fill="#E86E04"/>
<path d="M932.075 151.163L933.129 151.108L934.945 155.051L936.341 150.94L937.412 150.884L935.692 155.828L938.143 160.843L941.705 150.579L942.92 150.515L938.724 162.11L937.733 162.162L935.049 156.679L932.956 162.413L931.981 162.464L926.574 151.372L927.772 151.309L932.438 161.142L934.318 155.9L932.075 151.163ZM947.433 161.814C946.836 161.845 946.276 161.763 945.753 161.566C945.229 161.358 944.77 161.067 944.376 160.693C943.981 160.307 943.663 159.859 943.422 159.349C943.191 158.837 943.06 158.284 943.027 157.687C942.985 156.91 943.123 156.187 943.439 155.519C943.766 154.85 944.233 154.307 944.841 153.891C945.448 153.464 946.151 153.23 946.95 153.188C947.77 153.145 948.495 153.304 949.123 153.667C949.762 154.028 950.275 154.525 950.662 155.156C951.048 155.777 951.262 156.47 951.303 157.237C951.308 157.323 951.312 157.408 951.317 157.493C951.321 157.568 951.319 157.626 951.311 157.67L944.184 158.043C944.27 158.637 944.464 159.161 944.766 159.615C945.078 160.058 945.466 160.406 945.928 160.659C946.401 160.902 946.903 161.009 947.436 160.981C947.979 160.952 948.483 160.787 948.947 160.485C949.422 160.183 949.744 159.803 949.911 159.345L950.868 159.551C950.718 159.954 950.477 160.325 950.143 160.663C949.808 161.001 949.406 161.273 948.937 161.479C948.477 161.674 947.976 161.786 947.433 161.814ZM944.11 157.262L950.262 156.939C950.186 156.335 949.992 155.811 949.68 155.368C949.378 154.924 948.991 154.587 948.519 154.355C948.058 154.112 947.555 154.005 947.012 154.034C946.469 154.062 945.981 154.221 945.548 154.511C945.114 154.79 944.766 155.171 944.504 155.655C944.252 156.128 944.12 156.663 944.11 157.262ZM956.479 158.777C956.45 158.255 956.575 157.8 956.853 157.411C957.131 157.012 957.525 156.698 958.036 156.468C958.557 156.227 959.164 156.088 959.856 156.052C960.261 156.031 960.684 156.041 961.124 156.082C961.564 156.123 961.958 156.198 962.306 156.308L962.268 155.605C962.23 154.902 961.992 154.354 961.554 153.96C961.116 153.567 960.53 153.389 959.795 153.428C959.347 153.451 958.91 153.56 958.482 153.753C958.065 153.935 957.63 154.198 957.179 154.542L956.722 153.797C957.245 153.396 957.763 153.091 958.275 152.883C958.787 152.663 959.314 152.54 959.857 152.511C960.88 152.458 961.705 152.708 962.333 153.263C962.962 153.817 963.304 154.611 963.36 155.644L963.568 159.495C963.576 159.644 963.614 159.754 963.682 159.825C963.749 159.886 963.852 159.918 963.991 159.921L964.038 160.784C963.922 160.801 963.821 160.816 963.736 160.832C963.652 160.847 963.588 160.85 963.545 160.842C963.278 160.845 963.071 160.77 962.924 160.618C962.776 160.465 962.693 160.299 962.672 160.118L962.623 159.512C962.276 160.011 961.812 160.409 961.23 160.707C960.647 160.993 960.047 161.153 959.429 161.186C958.896 161.213 958.406 161.127 957.957 160.926C957.518 160.714 957.166 160.423 956.9 160.052C956.645 159.67 956.504 159.245 956.479 158.777ZM962.09 159.123C962.199 158.968 962.281 158.82 962.338 158.678C962.394 158.536 962.42 158.412 962.414 158.305L962.348 157.091C961.979 156.972 961.595 156.885 961.196 156.831C960.809 156.777 960.418 156.76 960.024 156.78C959.246 156.821 958.626 157.008 958.164 157.342C957.701 157.676 957.484 158.11 957.513 158.642C957.53 158.951 957.625 159.24 957.8 159.508C957.974 159.766 958.221 159.978 958.539 160.143C958.858 160.297 959.224 160.363 959.64 160.341C960.162 160.314 960.641 160.187 961.077 159.962C961.524 159.735 961.862 159.456 962.09 159.123ZM969.742 153.099C969.019 153.158 968.391 153.394 967.858 153.806C967.335 154.218 966.98 154.766 966.793 155.448L967.073 160.625L965.986 160.682L965.536 152.358L966.559 152.304L966.667 154.301C966.922 153.7 967.275 153.207 967.724 152.82C968.184 152.433 968.679 152.204 969.209 152.133C969.315 152.117 969.405 152.107 969.48 152.103C969.565 152.099 969.635 152.1 969.688 152.108L969.742 153.099ZM974.926 160.373C974.33 160.405 973.77 160.322 973.246 160.125C972.722 159.917 972.263 159.626 971.869 159.252C971.475 158.867 971.157 158.419 970.915 157.908C970.685 157.397 970.553 156.843 970.521 156.246C970.479 155.469 970.616 154.746 970.932 154.078C971.259 153.409 971.727 152.866 972.335 152.45C972.942 152.023 973.645 151.789 974.444 151.747C975.264 151.704 975.988 151.863 976.617 152.226C977.256 152.587 977.769 153.084 978.155 153.715C978.541 154.336 978.755 155.03 978.797 155.796C978.801 155.882 978.806 155.967 978.811 156.052C978.815 156.127 978.812 156.186 978.804 156.229L971.678 156.602C971.763 157.196 971.957 157.72 972.26 158.174C972.572 158.617 972.959 158.965 973.422 159.218C973.894 159.461 974.397 159.568 974.929 159.54C975.473 159.512 975.976 159.346 976.441 159.044C976.916 158.742 977.237 158.362 977.405 157.904L978.361 158.11C978.212 158.513 977.97 158.884 977.636 159.222C977.302 159.56 976.9 159.832 976.43 160.038C975.971 160.233 975.47 160.345 974.926 160.373ZM971.604 155.821L977.755 155.499C977.68 154.894 977.486 154.37 977.173 153.927C976.872 153.483 976.485 153.146 976.013 152.914C975.551 152.671 975.049 152.564 974.505 152.593C973.962 152.621 973.474 152.78 973.041 153.07C972.608 153.349 972.26 153.73 971.997 154.214C971.745 154.687 971.614 155.222 971.604 155.821ZM983.972 157.336C983.944 156.814 984.069 156.359 984.347 155.97C984.624 155.571 985.019 155.257 985.53 155.027C986.051 154.786 986.658 154.648 987.35 154.611C987.755 154.59 988.177 154.6 988.617 154.641C989.058 154.682 989.452 154.757 989.799 154.867L989.761 154.164C989.723 153.461 989.485 152.913 989.047 152.52C988.61 152.126 988.023 151.948 987.288 151.987C986.841 152.01 986.403 152.119 985.976 152.312C985.558 152.494 985.124 152.757 984.672 153.101L984.216 152.356C984.739 151.955 985.256 151.65 985.768 151.442C986.28 151.223 986.807 151.099 987.351 151.07C988.373 151.017 989.199 151.267 989.827 151.822C990.455 152.376 990.797 153.17 990.853 154.203L991.061 158.054C991.069 158.203 991.107 158.313 991.175 158.384C991.243 158.445 991.346 158.477 991.485 158.48L991.532 159.343C991.415 159.36 991.314 159.376 991.23 159.391C991.145 159.406 991.081 159.409 991.038 159.401C990.771 159.404 990.564 159.329 990.417 159.177C990.27 159.024 990.186 158.858 990.166 158.677L990.117 158.071C989.77 158.57 989.305 158.968 988.723 159.266C988.141 159.553 987.54 159.712 986.923 159.745C986.39 159.773 985.899 159.686 985.45 159.485C985.012 159.273 984.659 158.982 984.394 158.611C984.138 158.23 983.998 157.804 983.972 157.336ZM989.583 157.683C989.692 157.527 989.775 157.379 989.831 157.237C989.888 157.095 989.913 156.971 989.907 156.864L989.842 155.65C989.472 155.531 989.088 155.444 988.69 155.39C988.302 155.336 987.912 155.319 987.518 155.339C986.74 155.38 986.12 155.568 985.657 155.902C985.195 156.236 984.978 156.669 985.006 157.201C985.023 157.51 985.119 157.799 985.294 158.068C985.468 158.325 985.714 158.537 986.033 158.702C986.351 158.856 986.718 158.922 987.133 158.9C987.655 158.873 988.134 158.747 988.571 158.521C989.018 158.294 989.355 158.015 989.583 157.683ZM1000.48 158.874L999.392 158.931L999.14 154.282C999.087 153.302 998.905 152.596 998.593 152.163C998.28 151.721 997.815 151.515 997.198 151.548C996.771 151.57 996.357 151.699 995.953 151.933C995.548 152.157 995.196 152.459 994.896 152.838C994.606 153.206 994.404 153.622 994.291 154.087L994.566 159.184L993.48 159.241L993.029 150.917L994.02 150.865L994.122 152.75C994.324 152.334 994.598 151.967 994.944 151.65C995.289 151.322 995.686 151.061 996.135 150.866C996.584 150.672 997.053 150.562 997.543 150.536C998.001 150.512 998.395 150.577 998.724 150.731C999.052 150.884 999.321 151.116 999.53 151.425C999.739 151.724 999.898 152.095 1000.01 152.538C1000.12 152.97 1000.19 153.458 1000.21 154.001L1000.48 158.874ZM1006.87 158.539L1006.42 150.215L1007.5 150.158L1007.95 158.482L1006.87 158.539ZM1006.32 148.474L1006.24 146.876L1007.32 146.819L1007.41 148.417L1006.32 148.474ZM1017.35 157.99L1016.26 158.047L1016.01 153.398C1015.95 152.418 1015.77 151.712 1015.46 151.279C1015.15 150.837 1014.68 150.631 1014.07 150.664C1013.64 150.686 1013.22 150.815 1012.82 151.049C1012.42 151.273 1012.06 151.575 1011.76 151.954C1011.47 152.322 1011.27 152.738 1011.16 153.203L1011.43 158.3L1010.35 158.357L1009.9 150.033L1010.89 149.981L1010.99 151.866C1011.19 151.45 1011.47 151.083 1011.81 150.766C1012.16 150.438 1012.55 150.177 1013 149.982C1013.45 149.788 1013.92 149.678 1014.41 149.652C1014.87 149.628 1015.26 149.693 1015.59 149.847C1015.92 150 1016.19 150.232 1016.4 150.541C1016.61 150.84 1016.77 151.211 1016.87 151.654C1016.98 152.086 1017.05 152.574 1017.08 153.117L1017.35 157.99ZM1018.88 153.76C1018.84 152.972 1018.96 152.244 1019.24 151.578C1019.54 150.9 1019.96 150.349 1020.51 149.925C1021.07 149.501 1021.71 149.269 1022.45 149.231C1023.14 149.195 1023.77 149.349 1024.33 149.693C1024.91 150.026 1025.36 150.446 1025.7 150.951L1025.42 145.871L1026.51 145.814L1027.07 156.167C1027.08 156.316 1027.12 156.426 1027.18 156.497C1027.25 156.558 1027.35 156.59 1027.48 156.594L1027.52 157.457C1027.31 157.5 1027.15 157.519 1027.03 157.515C1026.81 157.516 1026.6 157.435 1026.42 157.274C1026.24 157.112 1026.15 156.93 1026.14 156.728L1026.09 155.913C1025.79 156.474 1025.37 156.929 1024.82 157.278C1024.27 157.627 1023.7 157.817 1023.09 157.849C1022.52 157.879 1021.98 157.79 1021.47 157.581C1020.98 157.372 1020.54 157.075 1020.16 156.689C1019.79 156.303 1019.48 155.859 1019.25 155.359C1019.03 154.847 1018.91 154.314 1018.88 153.76ZM1025.9 154.674L1025.76 152.102C1025.6 151.725 1025.36 151.391 1025.03 151.098C1024.71 150.795 1024.34 150.563 1023.94 150.403C1023.54 150.231 1023.15 150.155 1022.77 150.175C1022.32 150.199 1021.92 150.316 1021.57 150.527C1021.22 150.727 1020.92 150.993 1020.67 151.327C1020.43 151.66 1020.25 152.032 1020.14 152.444C1020.02 152.856 1019.97 153.275 1020 153.701C1020.02 154.149 1020.12 154.571 1020.29 154.968C1020.47 155.364 1020.72 155.715 1021.02 156.019C1021.32 156.313 1021.67 156.535 1022.05 156.686C1022.43 156.837 1022.84 156.901 1023.28 156.878C1023.56 156.863 1023.84 156.795 1024.13 156.673C1024.42 156.551 1024.7 156.392 1024.96 156.197C1025.22 155.991 1025.44 155.755 1025.61 155.49C1025.77 155.225 1025.87 154.953 1025.9 154.674ZM1029.34 153.917L1029.07 149.028L1030.16 148.971L1030.41 153.668C1030.46 154.616 1030.66 155.316 1031.01 155.768C1031.36 156.219 1031.86 156.428 1032.5 156.395C1032.92 156.372 1033.33 156.26 1033.71 156.059C1034.11 155.846 1034.45 155.561 1034.74 155.204C1035.03 154.836 1035.24 154.419 1035.38 153.953L1035.1 148.712L1036.18 148.655L1036.56 155.669C1036.57 155.818 1036.61 155.928 1036.68 156C1036.74 156.06 1036.84 156.092 1036.97 156.096L1037.02 156.959C1036.89 156.976 1036.79 156.987 1036.71 156.991C1036.64 157.006 1036.57 157.015 1036.51 157.018C1036.29 157.008 1036.1 156.932 1035.93 156.792C1035.78 156.65 1035.69 156.473 1035.66 156.261L1035.57 155.144C1035.24 155.802 1034.78 156.329 1034.17 156.724C1033.57 157.118 1032.91 157.335 1032.18 157.373C1031.31 157.418 1030.63 157.149 1030.15 156.566C1029.67 155.982 1029.4 155.099 1029.34 153.917ZM1041.83 156.867C1041.15 156.903 1040.51 156.824 1039.91 156.631C1039.31 156.438 1038.79 156.124 1038.34 155.688L1038.74 154.898C1039.24 155.31 1039.72 155.605 1040.2 155.783C1040.69 155.949 1041.2 156.019 1041.73 155.991C1042.38 155.957 1042.9 155.801 1043.3 155.525C1043.69 155.237 1043.87 154.848 1043.84 154.358C1043.82 154.028 1043.71 153.783 1043.5 153.623C1043.3 153.452 1043.01 153.323 1042.63 153.236C1042.26 153.138 1041.82 153.039 1041.3 152.938C1040.71 152.808 1040.22 152.668 1039.82 152.519C1039.42 152.358 1039.12 152.149 1038.9 151.894C1038.69 151.627 1038.58 151.275 1038.56 150.838C1038.53 150.295 1038.64 149.841 1038.88 149.475C1039.14 149.099 1039.5 148.807 1039.96 148.602C1040.43 148.385 1040.95 148.261 1041.54 148.23C1042.18 148.197 1042.75 148.269 1043.25 148.445C1043.75 148.622 1044.16 148.883 1044.49 149.229L1044.01 149.992C1043.69 149.667 1043.32 149.435 1042.89 149.297C1042.48 149.148 1042.02 149.086 1041.52 149.113C1041.18 149.13 1040.86 149.195 1040.56 149.307C1040.25 149.409 1040 149.571 1039.81 149.795C1039.63 150.007 1039.55 150.295 1039.57 150.657C1039.59 150.955 1039.67 151.185 1039.83 151.348C1039.99 151.5 1040.22 151.627 1040.53 151.728C1040.83 151.819 1041.2 151.917 1041.65 152.022C1042.29 152.159 1042.84 152.306 1043.32 152.463C1043.8 152.609 1044.17 152.813 1044.44 153.077C1044.72 153.341 1044.86 153.723 1044.89 154.223C1044.93 155.001 1044.67 155.623 1044.11 156.091C1043.55 156.558 1042.79 156.817 1041.83 156.867ZM1050.79 155.837C1050.7 155.873 1050.57 155.939 1050.4 156.034C1050.22 156.128 1050 156.214 1049.75 156.292C1049.5 156.369 1049.23 156.415 1048.93 156.431C1048.62 156.447 1048.32 156.404 1048.04 156.301C1047.77 156.198 1047.54 156.034 1047.37 155.808C1047.2 155.571 1047.1 155.277 1047.08 154.925L1046.76 148.966L1045.61 149.026L1045.56 148.164L1046.71 148.103L1046.56 145.292L1047.65 145.235L1047.8 148.047L1049.72 147.946L1049.76 148.809L1047.85 148.909L1048.15 154.565C1048.19 154.862 1048.31 155.08 1048.51 155.219C1048.72 155.358 1048.95 155.42 1049.21 155.407C1049.51 155.391 1049.78 155.329 1050.02 155.22C1050.25 155.101 1050.4 155.019 1050.45 154.973L1050.79 155.837ZM1055.92 148.582C1055.2 148.642 1054.57 148.877 1054.04 149.29C1053.51 149.702 1053.16 150.249 1052.97 150.932L1053.25 156.108L1052.16 156.165L1051.71 147.841L1052.74 147.788L1052.85 149.785C1053.1 149.184 1053.45 148.69 1053.9 148.303C1054.36 147.916 1054.86 147.687 1055.39 147.617C1055.49 147.601 1055.58 147.591 1055.66 147.587C1055.74 147.582 1055.81 147.584 1055.87 147.592L1055.92 148.582ZM1058.38 158.403C1058.53 158.406 1058.68 158.403 1058.82 158.396C1058.96 158.4 1059.06 158.389 1059.12 158.364C1059.25 158.336 1059.36 158.255 1059.47 158.121C1059.58 157.987 1059.71 157.735 1059.85 157.365C1059.99 156.994 1060.19 156.45 1060.43 155.732L1056.36 147.598L1057.51 147.538L1060.95 154.583L1063.37 147.23L1064.46 147.174L1060.73 158.136C1060.66 158.342 1060.56 158.534 1060.42 158.713C1060.28 158.902 1060.1 159.05 1059.88 159.157C1059.68 159.275 1059.41 159.348 1059.09 159.375C1059 159.391 1058.9 159.396 1058.79 159.391C1058.69 159.396 1058.58 159.391 1058.44 159.377L1058.38 158.403ZM1065.87 151.586L1065.82 150.579L1070.48 150.335L1070.54 151.341L1065.87 151.586ZM1073.38 155.053L1072.98 147.592L1071.83 147.653L1071.78 146.79L1072.93 146.73L1072.92 146.506C1072.88 145.824 1072.94 145.233 1073.11 144.733C1073.29 144.233 1073.55 143.845 1073.9 143.571C1074.25 143.285 1074.68 143.129 1075.18 143.103C1075.51 143.085 1075.84 143.116 1076.15 143.196C1076.47 143.276 1076.74 143.39 1076.97 143.538L1076.68 144.338C1076.53 144.228 1076.35 144.147 1076.12 144.095C1075.89 144.043 1075.67 144.023 1075.44 144.034C1074.94 144.061 1074.56 144.278 1074.31 144.687C1074.06 145.095 1073.96 145.671 1074 146.417L1074.02 146.673L1076.32 146.552L1076.36 147.415L1074.06 147.535L1074.47 154.996L1073.38 155.053ZM1081.54 154.786C1080.95 154.817 1080.39 154.734 1079.86 154.537C1079.35 154.329 1078.9 154.038 1078.5 153.663C1078.12 153.278 1077.81 152.834 1077.58 152.334C1077.35 151.822 1077.22 151.279 1077.19 150.704C1077.16 150.108 1077.23 149.548 1077.4 149.027C1077.58 148.494 1077.84 148.021 1078.19 147.607C1078.54 147.183 1078.96 146.846 1079.45 146.596C1079.95 146.335 1080.5 146.189 1081.09 146.157C1081.69 146.126 1082.25 146.215 1082.76 146.423C1083.27 146.62 1083.73 146.911 1084.12 147.297C1084.51 147.671 1084.83 148.114 1085.06 148.625C1085.29 149.126 1085.42 149.675 1085.45 150.271C1085.48 150.846 1085.41 151.4 1085.24 151.933C1085.06 152.454 1084.8 152.928 1084.45 153.352C1084.11 153.765 1083.69 154.102 1083.19 154.363C1082.7 154.613 1082.15 154.754 1081.54 154.786ZM1078.29 150.662C1078.33 151.28 1078.49 151.838 1078.78 152.335C1079.09 152.821 1079.48 153.201 1079.95 153.475C1080.42 153.739 1080.94 153.856 1081.49 153.827C1082.05 153.798 1082.54 153.622 1082.99 153.3C1083.43 152.978 1083.77 152.554 1084.02 152.028C1084.27 151.492 1084.38 150.92 1084.35 150.313C1084.31 149.695 1084.14 149.138 1083.84 148.641C1083.54 148.144 1083.15 147.759 1082.67 147.485C1082.2 147.21 1081.68 147.088 1081.13 147.117C1080.58 147.146 1080.08 147.327 1079.64 147.66C1079.21 147.992 1078.87 148.421 1078.62 148.947C1078.37 149.462 1078.26 150.034 1078.29 150.662ZM1091.11 154.284C1090.5 154.316 1089.94 154.234 1089.42 154.037C1088.9 153.829 1088.44 153.532 1088.04 153.148C1087.64 152.762 1087.32 152.314 1087.08 151.804C1086.85 151.292 1086.72 150.744 1086.69 150.158C1086.65 149.37 1086.78 148.642 1087.1 147.974C1087.42 147.305 1087.88 146.763 1088.49 146.347C1089.09 145.93 1089.81 145.701 1090.63 145.658C1091.41 145.617 1092.1 145.762 1092.72 146.093C1093.33 146.413 1093.8 146.869 1094.12 147.461L1093.09 147.852C1092.83 147.438 1092.48 147.126 1092.04 146.914C1091.61 146.69 1091.14 146.592 1090.63 146.619C1090.08 146.648 1089.58 146.818 1089.14 147.13C1088.7 147.441 1088.35 147.855 1088.1 148.37C1087.86 148.884 1087.76 149.461 1087.79 150.1C1087.83 150.729 1088 151.291 1088.3 151.788C1088.6 152.285 1088.99 152.676 1089.47 152.96C1089.94 153.235 1090.46 153.357 1091.01 153.328C1091.37 153.309 1091.72 153.227 1092.04 153.082C1092.37 152.936 1092.66 152.751 1092.89 152.525C1093.13 152.288 1093.29 152.039 1093.36 151.779L1094.45 152.042C1094.32 152.444 1094.09 152.814 1093.76 153.152C1093.43 153.479 1093.04 153.745 1092.58 153.951C1092.13 154.145 1091.64 154.256 1091.11 154.284ZM1095.99 150.423L1095.73 145.535L1096.82 145.478L1097.07 150.175C1097.12 151.123 1097.32 151.823 1097.67 152.275C1098.02 152.726 1098.52 152.935 1099.16 152.901C1099.58 152.879 1099.99 152.767 1100.37 152.565C1100.77 152.352 1101.11 152.067 1101.4 151.71C1101.69 151.343 1101.9 150.926 1102.04 150.459L1101.75 145.219L1102.84 145.162L1103.22 152.176C1103.23 152.325 1103.27 152.435 1103.33 152.506C1103.4 152.567 1103.5 152.599 1103.63 152.603L1103.67 153.466C1103.55 153.483 1103.45 153.494 1103.37 153.498C1103.3 153.512 1103.23 153.521 1103.16 153.524C1102.95 153.514 1102.76 153.439 1102.59 153.298C1102.43 153.157 1102.34 152.98 1102.32 152.767L1102.23 151.651C1101.9 152.309 1101.43 152.835 1100.83 153.23C1100.23 153.625 1099.57 153.841 1098.84 153.879C1097.97 153.925 1097.29 153.656 1096.81 153.072C1096.33 152.489 1096.06 151.606 1095.99 150.423ZM1108.49 153.374C1107.81 153.409 1107.17 153.331 1106.57 153.138C1105.97 152.945 1105.45 152.63 1105 152.195L1105.4 151.404C1105.89 151.817 1106.38 152.112 1106.86 152.289C1107.35 152.456 1107.86 152.525 1108.39 152.497C1109.04 152.463 1109.56 152.308 1109.95 152.031C1110.34 151.744 1110.53 151.355 1110.5 150.865C1110.48 150.535 1110.37 150.29 1110.16 150.13C1109.95 149.959 1109.66 149.83 1109.29 149.743C1108.92 149.645 1108.47 149.545 1107.96 149.444C1107.37 149.315 1106.88 149.175 1106.47 149.025C1106.08 148.864 1105.78 148.656 1105.56 148.4C1105.35 148.133 1105.24 147.781 1105.21 147.345C1105.18 146.802 1105.29 146.347 1105.54 145.982C1105.8 145.605 1106.16 145.314 1106.62 145.108C1107.08 144.892 1107.61 144.768 1108.2 144.737C1108.84 144.704 1109.41 144.775 1109.91 144.952C1110.41 145.129 1110.82 145.39 1111.15 145.736L1110.66 146.498C1110.35 146.173 1109.98 145.942 1109.55 145.804C1109.14 145.654 1108.68 145.593 1108.18 145.619C1107.84 145.637 1107.52 145.702 1107.21 145.814C1106.91 145.915 1106.66 146.078 1106.47 146.302C1106.29 146.514 1106.21 146.801 1106.23 147.163C1106.25 147.462 1106.33 147.692 1106.49 147.855C1106.65 148.007 1106.88 148.133 1107.18 148.235C1107.49 148.326 1107.86 148.424 1108.31 148.529C1108.94 148.666 1109.5 148.813 1109.98 148.97C1110.46 149.115 1110.83 149.32 1111.1 149.584C1111.37 149.847 1111.52 150.229 1111.55 150.73C1111.59 151.507 1111.33 152.13 1110.77 152.597C1110.21 153.065 1109.45 153.323 1108.49 153.374ZM1117.07 152.924C1116.48 152.955 1115.92 152.872 1115.4 152.675C1114.87 152.468 1114.41 152.177 1114.02 151.802C1113.62 151.417 1113.31 150.969 1113.06 150.458C1112.83 149.947 1112.7 149.393 1112.67 148.797C1112.63 148.019 1112.76 147.296 1113.08 146.628C1113.41 145.959 1113.88 145.417 1114.48 145C1115.09 144.573 1115.79 144.339 1116.59 144.297C1117.41 144.254 1118.14 144.414 1118.77 144.776C1119.4 145.138 1119.92 145.634 1120.3 146.266C1120.69 146.886 1120.9 147.58 1120.95 148.347C1120.95 148.432 1120.95 148.517 1120.96 148.602C1120.96 148.677 1120.96 148.736 1120.95 148.779L1113.83 149.152C1113.91 149.746 1114.11 150.27 1114.41 150.724C1114.72 151.167 1115.11 151.515 1115.57 151.769C1116.04 152.011 1116.55 152.118 1117.08 152.09C1117.62 152.062 1118.13 151.897 1118.59 151.595C1119.06 151.292 1119.39 150.912 1119.55 150.455L1120.51 150.661C1120.36 151.064 1120.12 151.434 1119.78 151.772C1119.45 152.11 1119.05 152.382 1118.58 152.588C1118.12 152.783 1117.62 152.895 1117.07 152.924ZM1113.75 148.371L1119.9 148.049C1119.83 147.444 1119.63 146.92 1119.32 146.477C1119.02 146.034 1118.63 145.696 1118.16 145.465C1117.7 145.222 1117.2 145.115 1116.65 145.143C1116.11 145.171 1115.62 145.331 1115.19 145.62C1114.76 145.899 1114.41 146.281 1114.15 146.764C1113.89 147.237 1113.76 147.773 1113.75 148.371ZM1122.07 148.352C1122.02 147.564 1122.14 146.837 1122.43 146.17C1122.72 145.493 1123.15 144.942 1123.7 144.517C1124.26 144.093 1124.9 143.862 1125.63 143.823C1126.33 143.787 1126.95 143.941 1127.52 144.285C1128.09 144.618 1128.55 145.038 1128.88 145.543L1128.61 140.463L1129.7 140.406L1130.26 150.759C1130.26 150.908 1130.3 151.018 1130.37 151.089C1130.44 151.15 1130.54 151.182 1130.66 151.186L1130.71 152.049C1130.5 152.092 1130.33 152.111 1130.22 152.107C1129.99 152.108 1129.79 152.028 1129.61 151.866C1129.43 151.705 1129.34 151.523 1129.32 151.32L1129.28 150.506C1128.98 151.066 1128.56 151.521 1128.01 151.87C1127.46 152.219 1126.88 152.41 1126.28 152.441C1125.7 152.472 1125.16 152.382 1124.66 152.174C1124.17 151.964 1123.73 151.667 1123.35 151.281C1122.97 150.895 1122.67 150.451 1122.44 149.951C1122.22 149.439 1122.1 148.906 1122.07 148.352ZM1129.09 149.266L1128.95 146.694C1128.79 146.318 1128.54 145.983 1128.22 145.69C1127.89 145.387 1127.53 145.155 1127.12 144.995C1126.73 144.823 1126.34 144.747 1125.96 144.768C1125.51 144.791 1125.11 144.908 1124.76 145.119C1124.41 145.319 1124.11 145.586 1123.86 145.919C1123.62 146.252 1123.44 146.624 1123.32 147.036C1123.21 147.448 1123.16 147.868 1123.18 148.294C1123.21 148.741 1123.31 149.163 1123.48 149.56C1123.66 149.956 1123.9 150.307 1124.21 150.611C1124.51 150.905 1124.85 151.127 1125.24 151.278C1125.62 151.429 1126.03 151.493 1126.46 151.47C1126.74 151.456 1127.03 151.387 1127.32 151.265C1127.61 151.143 1127.89 150.985 1128.14 150.789C1128.41 150.583 1128.63 150.348 1128.79 150.082C1128.96 149.817 1129.06 149.545 1129.09 149.266ZM1140.42 151.7C1139.82 151.732 1139.26 151.649 1138.74 151.452C1138.22 151.244 1137.77 150.953 1137.38 150.578C1136.99 150.192 1136.68 149.749 1136.45 149.248C1136.22 148.737 1136.09 148.194 1136.06 147.619C1136.03 147.022 1136.1 146.463 1136.28 145.941C1136.45 145.409 1136.71 144.936 1137.06 144.522C1137.42 144.098 1137.83 143.761 1138.32 143.511C1138.82 143.25 1139.37 143.103 1139.97 143.072C1140.56 143.041 1141.12 143.129 1141.63 143.337C1142.14 143.535 1142.6 143.826 1142.99 144.211C1143.39 144.586 1143.7 145.029 1143.93 145.54C1144.16 146.041 1144.29 146.589 1144.32 147.186C1144.35 147.761 1144.28 148.315 1144.11 148.847C1143.93 149.369 1143.67 149.842 1143.32 150.266C1142.98 150.68 1142.56 151.017 1142.06 151.278C1141.57 151.528 1141.02 151.669 1140.42 151.7ZM1137.17 147.577C1137.2 148.195 1137.36 148.752 1137.66 149.249C1137.96 149.736 1138.35 150.116 1138.82 150.39C1139.3 150.653 1139.81 150.771 1140.36 150.742C1140.92 150.713 1141.42 150.537 1141.86 150.215C1142.3 149.893 1142.65 149.469 1142.9 148.943C1143.14 148.406 1143.25 147.835 1143.22 147.228C1143.19 146.61 1143.02 146.053 1142.71 145.556C1142.41 145.059 1142.02 144.674 1141.54 144.399C1141.07 144.125 1140.56 144.003 1140 144.032C1139.45 144.061 1138.95 144.242 1138.51 144.574C1138.08 144.907 1137.74 145.336 1137.49 145.862C1137.24 146.377 1137.13 146.948 1137.17 147.577ZM1153.36 150.862L1152.28 150.919L1152.02 146.269C1151.97 145.29 1151.79 144.583 1151.48 144.151C1151.16 143.708 1150.7 143.503 1150.08 143.535C1149.66 143.558 1149.24 143.686 1148.84 143.921C1148.43 144.145 1148.08 144.447 1147.78 144.826C1147.49 145.193 1147.29 145.61 1147.17 146.075L1147.45 151.172L1146.36 151.228L1145.91 142.905L1146.9 142.853L1147.01 144.738C1147.21 144.321 1147.48 143.955 1147.83 143.637C1148.17 143.31 1148.57 143.048 1149.02 142.854C1149.47 142.66 1149.94 142.55 1150.43 142.524C1150.89 142.5 1151.28 142.565 1151.61 142.718C1151.94 142.872 1152.21 143.104 1152.41 143.413C1152.62 143.712 1152.78 144.083 1152.89 144.526C1153 144.958 1153.07 145.446 1153.1 145.989L1153.36 150.862ZM1155.1 139.075L1156.18 139.018L1156.71 148.796C1156.73 149.211 1156.82 149.479 1156.98 149.599C1157.14 149.719 1157.32 149.773 1157.53 149.762C1157.72 149.752 1157.92 149.721 1158.1 149.668C1158.29 149.615 1158.46 149.564 1158.59 149.514L1158.83 150.383C1158.63 150.479 1158.39 150.561 1158.09 150.63C1157.81 150.698 1157.56 150.738 1157.35 150.749C1156.86 150.775 1156.45 150.652 1156.14 150.38C1155.84 150.107 1155.67 149.721 1155.64 149.22L1155.1 139.075ZM1160.03 150.512L1159.58 142.188L1160.67 142.131L1161.12 150.455L1160.03 150.512ZM1159.49 140.447L1159.4 138.849L1160.49 138.792L1160.57 140.39L1159.49 140.447ZM1170.51 149.963L1169.42 150.02L1169.17 145.371C1169.12 144.391 1168.94 143.685 1168.63 143.252C1168.31 142.81 1167.85 142.604 1167.23 142.637C1166.8 142.659 1166.39 142.788 1165.98 143.022C1165.58 143.246 1165.23 143.548 1164.93 143.927C1164.64 144.295 1164.44 144.711 1164.32 145.176L1164.6 150.273L1163.51 150.33L1163.06 142.006L1164.05 141.954L1164.15 143.839C1164.36 143.423 1164.63 143.056 1164.98 142.739C1165.32 142.411 1165.72 142.15 1166.17 141.955C1166.62 141.761 1167.09 141.651 1167.58 141.625C1168.03 141.601 1168.43 141.666 1168.76 141.82C1169.08 141.973 1169.35 142.205 1169.56 142.514C1169.77 142.813 1169.93 143.184 1170.04 143.627C1170.15 144.059 1170.22 144.547 1170.25 145.09L1170.51 149.963ZM1176.43 149.813C1175.83 149.844 1175.27 149.761 1174.75 149.564C1174.23 149.357 1173.77 149.066 1173.37 148.691C1172.98 148.306 1172.66 147.858 1172.42 147.347C1172.19 146.836 1172.06 146.282 1172.03 145.686C1171.98 144.908 1172.12 144.185 1172.44 143.517C1172.76 142.849 1173.23 142.306 1173.84 141.89C1174.45 141.463 1175.15 141.228 1175.95 141.186C1176.77 141.143 1177.49 141.303 1178.12 141.665C1178.76 142.027 1179.27 142.524 1179.66 143.155C1180.05 143.775 1180.26 144.469 1180.3 145.236C1180.31 145.321 1180.31 145.407 1180.32 145.492C1180.32 145.566 1180.32 145.625 1180.31 145.668L1173.18 146.042C1173.27 146.635 1173.46 147.159 1173.76 147.613C1174.08 148.056 1174.46 148.405 1174.93 148.658C1175.4 148.9 1175.9 149.008 1176.43 148.98C1176.98 148.951 1177.48 148.786 1177.95 148.484C1178.42 148.181 1178.74 147.801 1178.91 147.344L1179.87 147.55C1179.72 147.953 1179.48 148.324 1179.14 148.662C1178.81 148.999 1178.4 149.272 1177.94 149.478C1177.48 149.673 1176.97 149.784 1176.43 149.813ZM1173.11 145.261L1179.26 144.938C1179.18 144.333 1178.99 143.809 1178.68 143.366C1178.38 142.923 1177.99 142.585 1177.52 142.354C1177.06 142.111 1176.55 142.004 1176.01 142.032C1175.47 142.061 1174.98 142.22 1174.55 142.51C1174.11 142.789 1173.76 143.17 1173.5 143.654C1173.25 144.126 1173.12 144.662 1173.11 145.261ZM1190.25 148.528C1190.17 148.564 1190.04 148.63 1189.86 148.725C1189.68 148.819 1189.47 148.905 1189.22 148.983C1188.97 149.06 1188.69 149.106 1188.39 149.122C1188.08 149.138 1187.79 149.095 1187.5 148.992C1187.23 148.889 1187.01 148.725 1186.84 148.499C1186.66 148.262 1186.57 147.968 1186.55 147.616L1186.23 141.657L1185.08 141.717L1185.03 140.855L1186.18 140.794L1186.03 137.983L1187.11 137.926L1187.27 140.737L1189.18 140.637L1189.23 141.5L1187.31 141.6L1187.62 147.256C1187.66 147.553 1187.77 147.771 1187.97 147.91C1188.18 148.049 1188.42 148.111 1188.67 148.098C1188.97 148.082 1189.24 148.02 1189.48 147.911C1189.72 147.792 1189.86 147.71 1189.92 147.664L1190.25 148.528ZM1195.09 148.835C1194.5 148.866 1193.94 148.783 1193.41 148.586C1192.89 148.379 1192.43 148.088 1192.04 147.713C1191.64 147.328 1191.32 146.88 1191.08 146.369C1190.85 145.858 1190.72 145.304 1190.69 144.708C1190.65 143.93 1190.78 143.207 1191.1 142.539C1191.43 141.871 1191.89 141.328 1192.5 140.912C1193.11 140.485 1193.81 140.25 1194.61 140.208C1195.43 140.165 1196.15 140.325 1196.78 140.687C1197.42 141.049 1197.94 141.545 1198.32 142.177C1198.71 142.797 1198.92 143.491 1198.96 144.258C1198.97 144.343 1198.97 144.428 1198.98 144.514C1198.98 144.588 1198.98 144.647 1198.97 144.69L1191.84 145.064C1191.93 145.657 1192.12 146.181 1192.43 146.635C1192.74 147.078 1193.13 147.427 1193.59 147.68C1194.06 147.922 1194.56 148.03 1195.1 148.002C1195.64 147.973 1196.14 147.808 1196.61 147.506C1197.08 147.203 1197.4 146.823 1197.57 146.366L1198.53 146.572C1198.38 146.975 1198.14 147.346 1197.8 147.683C1197.47 148.021 1197.07 148.294 1196.6 148.5C1196.14 148.695 1195.64 148.806 1195.09 148.835ZM1191.77 144.283L1197.92 143.96C1197.85 143.355 1197.65 142.831 1197.34 142.388C1197.04 141.945 1196.65 141.607 1196.18 141.376C1195.72 141.133 1195.22 141.026 1194.67 141.054C1194.13 141.083 1193.64 141.242 1193.21 141.532C1192.77 141.811 1192.43 142.192 1192.16 142.676C1191.91 143.148 1191.78 143.684 1191.77 144.283ZM1204.49 148.343C1203.88 148.374 1203.31 148.292 1202.79 148.095C1202.28 147.887 1201.82 147.591 1201.41 147.206C1201.02 146.821 1200.7 146.373 1200.46 145.862C1200.23 145.351 1200.1 144.802 1200.07 144.216C1200.02 143.428 1200.16 142.7 1200.48 142.032C1200.79 141.364 1201.25 140.821 1201.86 140.405C1202.47 139.989 1203.18 139.759 1204 139.716C1204.78 139.675 1205.48 139.82 1206.09 140.151C1206.71 140.471 1207.18 140.928 1207.5 141.52L1206.46 141.91C1206.2 141.497 1205.86 141.184 1205.42 140.972C1204.99 140.749 1204.52 140.65 1204.01 140.677C1203.45 140.706 1202.96 140.876 1202.51 141.188C1202.07 141.5 1201.72 141.913 1201.47 142.428C1201.24 142.943 1201.13 143.519 1201.17 144.159C1201.2 144.787 1201.37 145.35 1201.68 145.846C1201.98 146.343 1202.37 146.734 1202.84 147.019C1203.32 147.293 1203.83 147.416 1204.39 147.386C1204.75 147.368 1205.09 147.285 1205.42 147.14C1205.75 146.995 1206.03 146.809 1206.27 146.583C1206.51 146.346 1206.67 146.097 1206.74 145.837L1207.83 146.101C1207.7 146.503 1207.47 146.873 1207.13 147.211C1206.81 147.537 1206.42 147.803 1205.96 148.009C1205.51 148.204 1205.02 148.315 1204.49 148.343ZM1216.63 147.546L1215.55 147.603L1215.3 142.953C1215.25 142.016 1215.04 141.322 1214.69 140.87C1214.33 140.409 1213.84 140.194 1213.23 140.226C1212.82 140.247 1212.42 140.375 1212.03 140.609C1211.65 140.832 1211.31 141.133 1211.02 141.511C1210.74 141.878 1210.55 142.294 1210.45 142.759L1210.72 147.856L1209.64 147.912L1209.01 136.25L1210.09 136.193L1210.37 141.417C1210.67 140.782 1211.1 140.268 1211.67 139.875C1212.25 139.471 1212.87 139.251 1213.54 139.216C1214.02 139.191 1214.43 139.255 1214.77 139.408C1215.12 139.561 1215.4 139.797 1215.62 140.116C1215.85 140.425 1216.03 140.795 1216.15 141.227C1216.27 141.648 1216.34 142.13 1216.37 142.673L1216.63 147.546ZM1230.02 146.844L1228.94 146.901L1228.68 142.252C1228.63 141.315 1228.43 140.62 1228.08 140.169C1227.72 139.707 1227.23 139.492 1226.61 139.524C1226.21 139.546 1225.81 139.673 1225.42 139.908C1225.03 140.131 1224.7 140.431 1224.41 140.81C1224.13 141.177 1223.94 141.593 1223.83 142.057L1224.11 147.154L1223.02 147.211L1222.39 135.548L1223.48 135.491L1223.76 140.715C1224.06 140.08 1224.49 139.566 1225.06 139.173C1225.63 138.769 1226.26 138.55 1226.93 138.515C1227.41 138.49 1227.82 138.554 1228.16 138.707C1228.51 138.859 1228.79 139.095 1229.01 139.415C1229.24 139.723 1229.42 140.093 1229.54 140.525C1229.66 140.946 1229.73 141.428 1229.76 141.971L1230.02 146.844ZM1232.07 143.292L1231.81 138.403L1232.9 138.346L1233.15 143.043C1233.2 143.991 1233.4 144.691 1233.74 145.143C1234.1 145.594 1234.6 145.803 1235.24 145.77C1235.66 145.747 1236.07 145.635 1236.45 145.434C1236.85 145.221 1237.19 144.936 1237.48 144.579C1237.77 144.211 1237.98 143.794 1238.12 143.328L1237.83 138.087L1238.92 138.03L1239.3 145.044C1239.31 145.193 1239.34 145.303 1239.41 145.375C1239.48 145.435 1239.58 145.467 1239.71 145.471L1239.75 146.334C1239.63 146.351 1239.53 146.362 1239.45 146.366C1239.38 146.381 1239.31 146.39 1239.24 146.393C1239.03 146.383 1238.84 146.307 1238.67 146.167C1238.51 146.025 1238.42 145.848 1238.4 145.636L1238.31 144.519C1237.98 145.177 1237.51 145.704 1236.9 146.099C1236.31 146.493 1235.64 146.71 1234.92 146.748C1234.05 146.793 1233.37 146.524 1232.89 145.941C1232.41 145.357 1232.14 144.474 1232.07 143.292ZM1245.91 146.172C1245.26 146.206 1244.65 146.072 1244.08 145.771C1243.5 145.459 1243.05 145.056 1242.71 144.561L1242.8 146.174L1241.83 146.225L1241.2 134.563L1242.28 134.506L1242.56 139.586C1242.9 139.002 1243.32 138.526 1243.83 138.158C1244.33 137.779 1244.93 137.571 1245.62 137.535C1246.2 137.504 1246.73 137.6 1247.2 137.821C1247.69 138.041 1248.1 138.35 1248.46 138.748C1248.81 139.136 1249.08 139.586 1249.28 140.099C1249.48 140.601 1249.59 141.124 1249.62 141.667C1249.66 142.253 1249.58 142.807 1249.41 143.329C1249.24 143.85 1248.99 144.322 1248.65 144.746C1248.31 145.159 1247.91 145.496 1247.44 145.755C1246.98 146.003 1246.47 146.142 1245.91 146.172ZM1245.6 145.227C1246.05 145.203 1246.46 145.091 1246.83 144.89C1247.21 144.688 1247.52 144.421 1247.78 144.087C1248.04 143.753 1248.24 143.385 1248.36 142.983C1248.49 142.57 1248.54 142.151 1248.52 141.725C1248.49 141.139 1248.33 140.597 1248.05 140.099C1247.78 139.59 1247.41 139.193 1246.94 138.908C1246.49 138.611 1245.96 138.478 1245.37 138.51C1244.94 138.532 1244.55 138.649 1244.18 138.86C1243.83 139.071 1243.52 139.343 1243.25 139.678C1242.99 140.001 1242.78 140.354 1242.62 140.736L1242.76 143.325C1242.82 143.61 1242.94 143.876 1243.14 144.122C1243.33 144.357 1243.57 144.559 1243.84 144.726C1244.13 144.892 1244.43 145.021 1244.73 145.112C1245.03 145.203 1245.32 145.241 1245.6 145.227ZM1256.16 145.474L1255.76 138.013L1254.61 138.073L1254.56 137.211L1255.71 137.15L1255.7 136.927C1255.66 136.245 1255.72 135.654 1255.89 135.154C1256.07 134.654 1256.33 134.266 1256.68 133.992C1257.03 133.706 1257.46 133.55 1257.96 133.523C1258.3 133.506 1258.62 133.537 1258.93 133.617C1259.25 133.697 1259.52 133.811 1259.75 133.959L1259.46 134.759C1259.31 134.649 1259.13 134.568 1258.9 134.516C1258.67 134.464 1258.45 134.443 1258.22 134.455C1257.72 134.481 1257.34 134.699 1257.09 135.107C1256.84 135.515 1256.74 136.092 1256.78 136.838L1256.8 137.094L1259.1 136.973L1259.14 137.836L1256.84 137.956L1257.25 145.417L1256.16 145.474ZM1264.32 145.207C1263.73 145.238 1263.17 145.155 1262.65 144.958C1262.13 144.75 1261.68 144.459 1261.28 144.084C1260.9 143.698 1260.59 143.255 1260.36 142.755C1260.13 142.243 1260 141.7 1259.97 141.125C1259.94 140.528 1260.01 139.969 1260.18 139.447C1260.36 138.915 1260.62 138.442 1260.97 138.028C1261.32 137.604 1261.74 137.267 1262.23 137.017C1262.73 136.756 1263.28 136.61 1263.87 136.578C1264.47 136.547 1265.03 136.636 1265.54 136.844C1266.05 137.041 1266.51 137.332 1266.9 137.718C1267.29 138.092 1267.61 138.535 1267.84 139.046C1268.07 139.547 1268.2 140.096 1268.23 140.692C1268.26 141.267 1268.19 141.821 1268.02 142.353C1267.84 142.875 1267.58 143.348 1267.23 143.773C1266.89 144.186 1266.47 144.523 1265.97 144.784C1265.48 145.034 1264.93 145.175 1264.32 145.207ZM1261.07 141.083C1261.11 141.701 1261.27 142.258 1261.56 142.756C1261.87 143.242 1262.26 143.622 1262.73 143.896C1263.21 144.16 1263.72 144.277 1264.27 144.248C1264.83 144.219 1265.32 144.043 1265.77 143.721C1266.21 143.399 1266.55 142.975 1266.8 142.449C1267.05 141.913 1267.16 141.341 1267.13 140.734C1267.09 140.116 1266.92 139.559 1266.62 139.062C1266.32 138.565 1265.93 138.18 1265.45 137.906C1264.98 137.631 1264.46 137.509 1263.91 137.538C1263.36 137.567 1262.86 137.748 1262.42 138.081C1261.99 138.413 1261.65 138.842 1261.4 139.368C1261.15 139.883 1261.04 140.455 1261.07 141.083ZM1274.03 137.152C1273.3 137.211 1272.68 137.447 1272.14 137.859C1271.62 138.271 1271.27 138.819 1271.08 139.501L1271.36 144.678L1270.27 144.735L1269.82 136.411L1270.84 136.357L1270.95 138.354C1271.21 137.753 1271.56 137.26 1272.01 136.873C1272.47 136.486 1272.96 136.257 1273.49 136.186C1273.6 136.17 1273.69 136.16 1273.77 136.156C1273.85 136.152 1273.92 136.153 1273.97 136.161L1274.03 137.152ZM1285.52 143.936L1282.2 139.832L1280.52 141.586L1280.66 144.19L1279.57 144.247L1278.94 132.584L1280.03 132.527L1280.45 140.42L1284.92 135.636L1286.12 135.573L1282.9 139.154L1286.7 143.874L1285.52 143.936ZM1288.04 143.803L1287.59 135.479L1288.68 135.423L1289.13 143.746L1288.04 143.803ZM1287.5 133.738L1287.41 132.14L1288.5 132.083L1288.59 133.681L1287.5 133.738ZM1290.74 139.512C1290.7 138.724 1290.82 137.997 1291.1 137.33C1291.4 136.653 1291.82 136.102 1292.38 135.677C1292.93 135.253 1293.57 135.022 1294.31 134.983C1295 134.947 1295.63 135.101 1296.19 135.445C1296.77 135.778 1297.22 136.198 1297.56 136.704L1297.28 131.623L1298.37 131.566L1298.93 141.919C1298.94 142.068 1298.98 142.178 1299.04 142.249C1299.11 142.31 1299.21 142.342 1299.34 142.346L1299.38 143.209C1299.17 143.252 1299.01 143.271 1298.89 143.267C1298.67 143.268 1298.47 143.188 1298.29 143.026C1298.11 142.865 1298.01 142.683 1298 142.48L1297.96 141.666C1297.65 142.226 1297.23 142.681 1296.68 143.03C1296.14 143.379 1295.56 143.57 1294.95 143.602C1294.38 143.632 1293.84 143.542 1293.33 143.334C1292.84 143.125 1292.4 142.827 1292.02 142.441C1291.65 142.055 1291.35 141.612 1291.12 141.111C1290.9 140.599 1290.77 140.066 1290.74 139.512ZM1297.76 140.426L1297.62 137.854C1297.46 137.478 1297.22 137.143 1296.89 136.851C1296.57 136.547 1296.2 136.315 1295.8 136.155C1295.4 135.983 1295.02 135.908 1294.63 135.928C1294.19 135.951 1293.79 136.068 1293.43 136.279C1293.08 136.479 1292.78 136.746 1292.53 137.079C1292.29 137.412 1292.12 137.785 1292 138.197C1291.88 138.609 1291.84 139.028 1291.86 139.454C1291.88 139.901 1291.98 140.323 1292.15 140.72C1292.33 141.116 1292.58 141.467 1292.88 141.771C1293.19 142.065 1293.53 142.287 1293.91 142.438C1294.29 142.589 1294.7 142.653 1295.14 142.63C1295.42 142.616 1295.7 142.548 1295.99 142.425C1296.29 142.303 1296.56 142.145 1296.82 141.95C1297.08 141.743 1297.3 141.508 1297.47 141.243C1297.64 140.977 1297.73 140.705 1297.76 140.426ZM1304.2 143.117C1303.52 143.152 1302.88 143.074 1302.28 142.881C1301.69 142.688 1301.16 142.373 1300.71 141.938L1301.12 141.147C1301.61 141.56 1302.1 141.855 1302.58 142.032C1303.06 142.199 1303.58 142.268 1304.11 142.24C1304.76 142.206 1305.28 142.051 1305.67 141.774C1306.06 141.487 1306.24 141.098 1306.22 140.608C1306.2 140.278 1306.08 140.033 1305.87 139.873C1305.67 139.702 1305.38 139.573 1305 139.486C1304.63 139.388 1304.19 139.288 1303.67 139.187C1303.09 139.058 1302.59 138.918 1302.19 138.768C1301.8 138.607 1301.49 138.399 1301.28 138.143C1301.07 137.876 1300.95 137.524 1300.93 137.088C1300.9 136.545 1301.01 136.09 1301.26 135.725C1301.51 135.348 1301.87 135.057 1302.33 134.851C1302.8 134.634 1303.33 134.511 1303.91 134.48C1304.55 134.447 1305.12 134.518 1305.62 134.695C1306.12 134.871 1306.54 135.133 1306.87 135.479L1306.38 136.241C1306.06 135.916 1305.69 135.685 1305.27 135.547C1304.85 135.397 1304.4 135.336 1303.9 135.362C1303.56 135.38 1303.23 135.445 1302.93 135.557C1302.63 135.658 1302.38 135.821 1302.19 136.044C1302.01 136.257 1301.93 136.544 1301.95 136.906C1301.96 137.205 1302.05 137.435 1302.21 137.598C1302.36 137.75 1302.6 137.876 1302.9 137.978C1303.2 138.069 1303.58 138.167 1304.02 138.271C1304.66 138.409 1305.22 138.556 1305.7 138.712C1306.17 138.858 1306.55 139.063 1306.82 139.327C1307.09 139.59 1307.24 139.972 1307.27 140.473C1307.31 141.25 1307.05 141.873 1306.49 142.34C1305.92 142.808 1305.16 143.066 1304.2 143.117ZM1309.03 142.704L1308.94 141.138L1309.89 141.089L1309.97 142.654L1309.03 142.704Z" fill="white"/>
<path d="M1321.61 135.838L1328.41 132.704L1331.78 126.014L1334.91 132.817L1341.6 136.187L1334.8 139.322L1331.43 146.011L1328.3 139.208L1321.61 135.838Z" fill="#E86E04"/>
<rect width="247.547" height="60" transform="matrix(0.829037 -0.559193 0.571492 0.820608 660.355 149.935)" fill="#E86E04"/>
<path d="M717.789 154.011L711.297 144.688L712.226 144.062L718.151 152.57L723.589 148.902L724.156 149.716L717.789 154.011ZM728.218 147.169C727.723 147.503 727.199 147.722 726.646 147.824C726.097 147.912 725.554 147.898 725.019 147.783C724.487 147.653 723.99 147.435 723.53 147.128C723.063 146.813 722.665 146.419 722.336 145.946C721.994 145.456 721.761 144.944 721.637 144.41C721.506 143.868 721.483 143.331 721.567 142.798C721.645 142.257 721.827 141.754 722.115 141.29C722.405 140.811 722.798 140.404 723.293 140.07C723.789 139.736 724.311 139.526 724.861 139.438C725.404 139.341 725.947 139.355 726.488 139.479C727.023 139.594 727.524 139.809 727.991 140.125C728.451 140.432 728.852 140.83 729.194 141.32C729.523 141.793 729.753 142.3 729.883 142.843C730.008 143.376 730.031 143.914 729.954 144.455C729.878 144.982 729.696 145.484 729.405 145.963C729.118 146.427 728.722 146.829 728.218 147.169ZM723.26 145.342C723.614 145.849 724.047 146.239 724.561 146.51C725.078 146.766 725.611 146.889 726.162 146.877C726.707 146.857 727.209 146.692 727.669 146.382C728.129 146.071 728.464 145.666 728.673 145.164C728.883 144.662 728.956 144.124 728.894 143.549C728.825 142.965 728.617 142.423 728.269 141.924C727.916 141.417 727.478 141.03 726.955 140.765C726.433 140.5 725.896 140.373 725.345 140.385C724.794 140.396 724.289 140.557 723.829 140.867C723.369 141.177 723.037 141.588 722.834 142.098C722.639 142.602 722.573 143.142 722.636 143.717C722.692 144.284 722.901 144.825 723.26 145.342ZM732.304 135.324C731.715 135.747 731.3 136.272 731.06 136.897C730.828 137.516 730.811 138.164 731.01 138.841L733.972 143.095L733.07 143.703L728.306 136.863L729.155 136.29L730.298 137.931C730.202 137.289 730.245 136.688 730.426 136.128C730.617 135.562 730.921 135.112 731.339 134.779C731.421 134.71 731.493 134.655 731.555 134.613C731.626 134.566 731.687 134.531 731.737 134.51L732.304 135.324ZM740.577 138.833C740.081 139.167 739.558 139.386 739.005 139.488C738.446 139.582 737.9 139.571 737.365 139.456C736.823 139.332 736.315 139.115 735.84 138.806C735.373 138.49 734.969 138.087 734.627 137.597C734.182 136.958 733.92 136.273 733.84 135.543C733.769 134.806 733.884 134.104 734.186 133.437C734.483 132.761 734.962 132.2 735.626 131.752C736.307 131.293 737.012 131.055 737.741 131.039C738.48 131.017 739.181 131.175 739.845 131.512C740.502 131.84 741.05 132.319 741.489 132.95C741.538 133.02 741.587 133.09 741.636 133.16C741.678 133.221 741.707 133.272 741.723 133.313L735.807 137.303C736.192 137.764 736.634 138.109 737.132 138.339C737.633 138.554 738.149 138.651 738.679 138.628C739.211 138.59 739.699 138.422 740.141 138.124C740.592 137.82 740.937 137.419 741.177 136.923C741.425 136.421 741.501 135.933 741.404 135.458L742.333 135.14C742.417 135.56 742.404 135.999 742.295 136.458C742.186 136.918 741.985 137.356 741.69 137.773C741.399 138.176 741.028 138.529 740.577 138.833ZM735.332 136.678L740.439 133.233C740.056 132.758 739.614 132.413 739.114 132.198C738.622 131.976 738.112 131.889 737.586 131.935C737.062 131.967 736.575 132.135 736.124 132.439C735.673 132.743 735.338 133.13 735.118 133.599C734.893 134.06 734.796 134.563 734.825 135.11C734.857 135.641 735.026 136.164 735.332 136.678ZM755.566 128.53L754.664 129.138L752.003 125.318C751.448 124.521 750.912 124.021 750.393 123.818C749.874 123.614 749.363 123.683 748.859 124.023C748.337 124.374 747.997 124.874 747.837 125.522C747.686 126.164 747.728 126.831 747.962 127.522L750.87 131.697L749.968 132.306L747.307 128.485C746.746 127.68 746.214 127.177 745.711 126.976C745.201 126.767 744.69 126.835 744.177 127.181C743.664 127.527 743.324 128.019 743.159 128.659C742.993 129.298 743.03 129.967 743.271 130.667L746.188 134.856L745.286 135.464L740.522 128.623L741.344 128.069L742.423 129.618C742.343 128.887 742.428 128.225 742.678 127.632C742.937 127.033 743.344 126.546 743.902 126.17C744.476 125.782 745.053 125.631 745.633 125.716C746.212 125.802 746.724 126.08 747.17 126.552C747.086 125.759 747.161 125.065 747.396 124.469C747.64 123.867 748.045 123.376 748.611 122.994C749 122.731 749.376 122.581 749.738 122.542C750.11 122.497 750.467 122.552 750.809 122.707C751.154 122.848 751.49 123.078 751.816 123.398C752.146 123.703 752.466 124.079 752.777 124.525L755.566 128.53ZM760.856 124.962L756.092 118.121L756.994 117.513L761.758 124.353L760.856 124.962ZM755.096 116.69L754.181 115.377L755.083 114.769L755.997 116.081L755.096 116.69ZM767.365 120.765C766.79 121.152 766.169 121.352 765.502 121.365C764.844 121.372 764.229 121.245 763.659 120.987L766.594 125.201L765.692 125.81L758.981 116.173L759.79 115.627L760.714 116.953C760.689 116.339 760.815 115.746 761.092 115.173C761.363 114.592 761.759 114.125 762.281 113.773C762.759 113.451 763.266 113.256 763.805 113.189C764.337 113.113 764.864 113.143 765.388 113.279C765.911 113.415 766.402 113.644 766.86 113.965C767.32 114.272 767.709 114.653 768.026 115.108C768.471 115.747 768.75 116.427 768.863 117.149C768.978 117.856 768.914 118.529 768.671 119.169C768.428 119.809 767.992 120.341 767.365 120.765ZM766.564 120.147C766.944 119.89 767.233 119.586 767.43 119.235C767.621 118.874 767.731 118.491 767.76 118.085C767.799 117.674 767.762 117.267 767.652 116.866C767.535 116.456 767.355 116.075 767.111 115.725C766.855 115.358 766.545 115.052 766.181 114.809C765.825 114.56 765.44 114.389 765.024 114.296C764.608 114.204 764.194 114.187 763.781 114.247C763.368 114.307 762.98 114.459 762.617 114.704C762.388 114.859 762.179 115.064 761.993 115.318C761.806 115.573 761.656 115.861 761.541 116.182C761.43 116.489 761.369 116.794 761.359 117.096C761.349 117.399 761.406 117.676 761.529 117.928L762.992 120.028C763.359 120.257 763.753 120.422 764.175 120.523C764.59 120.616 765.008 120.637 765.427 120.586C765.849 120.52 766.228 120.373 766.564 120.147ZM774.291 116.093C773.725 116.474 773.135 116.737 772.521 116.881C771.906 117.026 771.291 117.029 770.675 116.891L770.608 116.01C771.247 116.107 771.819 116.107 772.324 116.011C772.831 115.9 773.306 115.695 773.749 115.397C774.288 115.033 774.653 114.633 774.842 114.196C775.026 113.751 774.978 113.327 774.697 112.924C774.508 112.653 774.281 112.504 774.015 112.477C773.753 112.436 773.436 112.475 773.065 112.597C772.698 112.703 772.265 112.847 771.767 113.028C771.198 113.219 770.702 113.355 770.277 113.436C769.855 113.501 769.484 113.482 769.163 113.376C768.846 113.256 768.562 113.016 768.312 112.658C768.001 112.211 767.856 111.769 767.875 111.331C767.898 110.878 768.052 110.446 768.338 110.035C768.626 109.609 769.013 109.232 769.499 108.904C770.03 108.546 770.557 108.313 771.079 108.205C771.602 108.097 772.095 108.105 772.559 108.23L772.542 109.129C772.099 109.016 771.659 109.01 771.223 109.112C770.79 109.198 770.365 109.382 769.949 109.662C769.666 109.853 769.424 110.074 769.222 110.326C769.015 110.569 768.888 110.835 768.842 111.123C768.798 111.397 768.88 111.682 769.088 111.98C769.258 112.225 769.454 112.376 769.676 112.432C769.891 112.48 770.156 112.469 770.471 112.398C770.779 112.318 771.151 112.209 771.587 112.069C772.206 111.858 772.762 111.695 773.255 111.581C773.742 111.459 774.17 111.44 774.541 111.524C774.912 111.609 775.24 111.857 775.527 112.268C775.972 112.907 776.076 113.57 775.84 114.257C775.603 114.944 775.087 115.556 774.291 116.093ZM776.311 110.388L773.513 106.37L774.415 105.762L777.104 109.622C777.646 110.401 778.184 110.894 778.718 111.1C779.26 111.3 779.797 111.221 780.327 110.863C780.681 110.625 780.97 110.321 781.193 109.951C781.419 109.567 781.563 109.148 781.625 108.695C781.68 108.233 781.643 107.77 781.513 107.304L778.514 102.997L779.416 102.389L783.43 108.153C783.516 108.275 783.606 108.349 783.702 108.375C783.792 108.392 783.892 108.369 784.005 108.306L784.498 109.015C784.398 109.095 784.317 109.156 784.256 109.198C784.2 109.248 784.145 109.291 784.092 109.327C783.903 109.429 783.7 109.463 783.482 109.43C783.273 109.391 783.103 109.287 782.972 109.118L782.305 108.217C782.37 108.945 782.246 109.634 781.931 110.283C781.625 110.927 781.172 111.451 780.571 111.857C779.846 112.346 779.124 112.466 778.405 112.218C777.686 111.97 776.988 111.36 776.311 110.388ZM796.5 100.92L795.598 101.528L792.937 97.7075C792.382 96.9109 791.845 96.411 791.327 96.2076C790.808 96.0042 790.297 96.0724 789.793 96.4124C789.271 96.7643 788.93 97.2643 788.771 97.9123C788.62 98.5543 788.662 99.2208 788.896 99.9118L791.804 104.087L790.902 104.695L788.241 100.875C787.68 100.069 787.148 99.5665 786.644 99.3659C786.135 99.1565 785.623 99.2248 785.11 99.5708C784.598 99.9167 784.258 100.409 784.093 101.049C783.927 101.688 783.964 102.357 784.205 103.057L787.121 107.245L786.22 107.854L781.456 101.013L782.278 100.459L783.357 102.008C783.277 101.277 783.362 100.615 783.612 100.022C783.87 99.423 784.278 98.9357 784.835 98.5599C785.41 98.1722 785.987 98.021 786.566 98.1062C787.146 98.1915 787.658 98.4699 788.103 98.9414C788.019 98.149 788.095 97.4548 788.33 96.859C788.573 96.2572 788.978 95.7654 789.544 95.3837C789.933 95.1212 790.309 94.9705 790.672 94.9316C791.044 94.8868 791.401 94.942 791.743 95.0972C792.088 95.2377 792.423 95.4679 792.75 95.7878C793.08 96.093 793.4 96.4688 793.711 96.9153L796.5 100.92ZM798.957 94.264C798.506 93.6163 798.227 92.936 798.121 92.2231C798.017 91.4955 798.091 90.8087 798.343 90.1628C798.595 89.5168 799.026 88.988 799.636 88.5765C800.211 88.1888 800.831 87.996 801.495 87.9981C802.162 87.9856 802.773 88.1073 803.328 88.3632L800.421 84.1879L801.323 83.5795L807.248 92.0876C807.333 92.2101 807.424 92.2842 807.52 92.3096C807.609 92.3264 807.71 92.3033 807.822 92.2405L808.316 92.9495C808.157 93.0951 808.027 93.1963 807.923 93.2531C807.731 93.3696 807.516 93.4056 807.277 93.361C807.038 93.3164 806.86 93.2109 806.745 93.0446L806.278 92.375C806.315 93.0063 806.191 93.6113 805.905 94.19C805.619 94.7688 805.224 95.2281 804.72 95.5681C804.242 95.8902 803.733 96.0921 803.192 96.174C802.66 96.2498 802.128 96.2228 801.596 96.093C801.072 95.9572 800.58 95.7359 800.12 95.4291C799.662 95.1075 799.274 94.7192 798.957 94.264ZM805.459 91.4224L803.987 89.3085C803.652 89.071 803.269 88.9117 802.835 88.8309C802.396 88.7413 801.961 88.7324 801.53 88.8043C801.102 88.8615 800.729 88.9974 800.41 89.2121C800.039 89.4627 799.758 89.7681 799.567 90.1285C799.37 90.4801 799.252 90.8617 799.214 91.2734C799.185 91.6792 799.228 92.0871 799.345 92.4973C799.462 92.9075 799.642 93.2876 799.886 93.6377C800.142 94.0054 800.448 94.3137 800.803 94.5628C801.167 94.806 801.56 94.9783 801.982 95.0799C802.398 95.1727 802.809 95.1847 803.216 95.116C803.623 95.0473 804.008 94.8907 804.37 94.6461C804.6 94.491 804.808 94.2862 804.995 94.0317C805.182 93.7771 805.334 93.5009 805.451 93.203C805.571 92.8903 805.634 92.5783 805.638 92.2668C805.642 91.9553 805.582 91.6739 805.459 91.4224ZM813.078 89.9308C812.582 90.2648 812.058 90.4831 811.506 90.5856C810.956 90.6733 810.414 90.6597 809.879 90.5446C809.347 90.4148 808.85 90.1964 808.389 89.8896C807.923 89.574 807.525 89.1799 807.196 88.7073C806.854 88.2171 806.621 87.7053 806.497 87.1718C806.366 86.6295 806.343 86.0921 806.427 85.5595C806.504 85.0181 806.687 84.5153 806.975 84.0512C807.265 83.5723 807.658 83.1658 808.153 82.8318C808.648 82.4978 809.171 82.2869 809.721 82.1991C810.264 82.1026 810.807 82.1162 811.348 82.2401C811.883 82.3552 812.384 82.5705 812.85 82.8861C813.311 83.1929 813.712 83.5914 814.053 84.0816C814.383 84.5543 814.612 85.0617 814.743 85.604C814.868 86.1374 814.891 86.6749 814.813 87.2163C814.738 87.7429 814.555 88.2457 814.265 88.7246C813.977 89.1887 813.582 89.5908 813.078 89.9308ZM808.12 88.103C808.474 88.6107 808.907 89.0001 809.421 89.2711C809.937 89.5274 810.471 89.6499 811.022 89.6385C811.567 89.6183 812.069 89.4532 812.529 89.143C812.989 88.8329 813.323 88.427 813.533 87.9254C813.743 87.4238 813.816 86.8854 813.753 86.3102C813.685 85.7262 813.476 85.1848 813.129 84.6858C812.775 84.1781 812.337 83.7918 811.815 83.5267C811.292 83.2616 810.756 83.1348 810.205 83.1462C809.654 83.1576 809.148 83.3184 808.689 83.6285C808.229 83.9387 807.897 84.3489 807.694 84.8593C807.499 85.3636 807.433 85.9034 807.496 86.4787C807.552 87.0451 807.76 87.5866 808.12 88.103ZM811.295 76.8532L812.197 76.2447L817.793 84.2801C818.031 84.6215 818.248 84.803 818.445 84.8245C818.642 84.846 818.829 84.7971 819.006 84.6779C819.165 84.5705 819.312 84.4456 819.447 84.3032C819.582 84.1609 819.694 84.0334 819.785 83.9208L820.447 84.5356C820.328 84.719 820.159 84.916 819.942 85.1268C819.734 85.3316 819.541 85.4937 819.365 85.613C818.958 85.8873 818.548 85.9899 818.136 85.9206C817.733 85.8453 817.388 85.6019 817.101 85.1905L811.295 76.8532ZM824.58 82.172C824.085 82.506 823.561 82.7243 823.009 82.8268C822.459 82.9145 821.917 82.9009 821.382 82.7858C820.849 82.656 820.353 82.4376 819.892 82.1308C819.426 81.8152 819.028 81.4211 818.698 80.9485C818.357 80.4583 818.124 79.9465 818 79.413C817.869 78.8707 817.846 78.3333 817.929 77.8007C818.007 77.2593 818.19 76.7565 818.478 76.2924C818.768 75.8135 819.161 75.407 819.656 75.073C820.151 74.739 820.674 74.5281 821.223 74.4403C821.767 74.3438 822.309 74.3574 822.851 74.4813C823.386 74.5964 823.887 74.8117 824.353 75.1273C824.814 75.4341 825.215 75.8326 825.556 76.3228C825.885 76.7955 826.115 77.3029 826.246 77.8452C826.371 78.3786 826.394 78.9161 826.316 79.4575C826.241 79.9841 826.058 80.4869 825.768 80.9658C825.48 81.4299 825.085 81.832 824.58 82.172ZM819.623 80.3442C819.976 80.8519 820.41 81.2413 820.924 81.5123C821.44 81.7686 821.974 81.8911 822.525 81.8797C823.07 81.8595 823.572 81.6944 824.032 81.3842C824.492 81.0741 824.826 80.6682 825.036 80.1666C825.245 79.665 825.319 79.1266 825.256 78.5514C825.187 77.9674 824.979 77.426 824.632 76.927C824.278 76.4193 823.84 76.033 823.318 75.7679C822.795 75.5028 822.258 75.376 821.708 75.3874C821.157 75.3988 820.651 75.5596 820.191 75.8697C819.732 76.1799 819.4 76.5901 819.196 77.1005C819.002 77.6048 818.936 78.1446 818.999 78.7199C819.055 79.2863 819.263 79.8278 819.623 80.3442ZM828.667 70.3268C828.077 70.75 827.663 71.2741 827.422 71.8994C827.191 72.5187 827.174 73.1667 827.372 73.8435L830.335 78.0975L829.433 78.7059L824.669 71.8653L825.518 71.2927L826.661 72.9339C826.565 72.2914 826.607 71.6902 826.789 71.1301C826.98 70.5641 827.284 70.1145 827.702 69.7812C827.784 69.7128 827.856 69.6577 827.918 69.616C827.989 69.5683 828.049 69.5339 828.1 69.5128L828.667 70.3268ZM839.513 72.0998C838.947 72.4815 838.357 72.7445 837.743 72.8887C837.128 73.033 836.513 73.0362 835.897 72.8984L835.83 72.0177C836.469 72.1141 837.041 72.1142 837.546 72.0181C838.053 71.9072 838.528 71.7027 838.97 71.4045C839.51 71.0406 839.874 70.6403 840.064 70.2036C840.248 69.7581 840.199 69.334 839.919 68.9314C839.73 68.66 839.503 68.511 839.237 68.4843C838.974 68.4428 838.658 68.4827 838.287 68.604C837.92 68.7105 837.487 68.8544 836.989 69.0357C836.42 69.2264 835.924 69.3622 835.499 69.4428C835.077 69.5087 834.706 69.489 834.385 69.3835C834.068 69.2632 833.784 69.0237 833.534 68.6648C833.223 68.2184 833.077 67.7762 833.097 67.3382C833.12 66.8855 833.274 66.4536 833.56 66.0423C833.848 65.6164 834.235 65.2393 834.721 64.9113C835.252 64.5534 835.779 64.3204 836.301 64.2124C836.824 64.1043 837.317 64.1126 837.781 64.2372L837.764 65.1364C837.321 65.0233 836.881 65.0175 836.445 65.1188C836.011 65.2054 835.587 65.3889 835.171 65.6692C834.888 65.8601 834.646 66.0814 834.444 66.3331C834.237 66.5761 834.11 66.8418 834.064 67.1302C834.02 67.4039 834.102 67.6896 834.31 67.9872C834.48 68.2322 834.676 68.3831 834.898 68.4396C835.113 68.4874 835.378 68.4759 835.692 68.4052C836.001 68.3257 836.373 68.2162 836.809 68.0767C837.428 67.8648 837.984 67.7021 838.477 67.5884C838.964 67.466 839.392 67.4471 839.763 67.5315C840.134 67.6159 840.462 67.8638 840.749 68.2752C841.194 68.9142 841.298 69.5772 841.062 70.2641C840.825 70.951 840.309 71.5629 839.513 72.0998ZM843.566 69.1734L838.802 62.3328L839.704 61.7244L844.468 68.565L843.566 69.1734ZM837.805 60.9017L836.891 59.5887L837.793 58.9803L838.707 60.2933L837.805 60.9017ZM849.542 64.6599C849.489 64.7339 849.412 64.8566 849.311 65.0281C849.209 65.1995 849.071 65.383 848.895 65.5787C848.719 65.7744 848.508 65.9557 848.26 66.1227C848.004 66.2957 847.727 66.4116 847.43 66.4704C847.142 66.5232 846.864 66.4981 846.598 66.395C846.325 66.2831 846.088 66.0828 845.887 65.7939L842.476 60.8965L841.521 61.5407L841.027 60.8317L841.982 60.1875L840.373 57.8767L841.275 57.2683L842.884 59.5791L844.476 58.5055L844.97 59.2145L843.378 60.2881L846.615 64.9361C846.803 65.1692 847.02 65.2934 847.264 65.3086C847.518 65.3178 847.75 65.2508 847.963 65.1077C848.21 64.9407 848.408 64.7492 848.557 64.5332C848.699 64.3085 848.78 64.1637 848.8 64.0989L849.542 64.6599Z" fill="#111111"/>
<rect width="932.644" height="60" transform="matrix(0.994522 -0.104528 0.110518 0.993874 -34 97.9683)" fill="#111111"/>
<path d="M210.558 101.203L217.361 98.069L220.731 91.3795L223.866 98.1825L230.555 101.552L223.752 104.687L220.382 111.376L217.248 104.573L210.558 101.203Z" fill="#E86E04"/>
<path d="M246.889 92.7986L247.939 92.6882L249.976 96.5283L251.137 92.352L252.203 92.24L250.766 97.2657L253.498 102.143L256.475 91.7106L257.684 91.5835L254.15 103.377L253.164 103.481L250.172 98.1486L248.406 103.981L247.435 104.083L241.406 93.2944L242.599 93.169L247.817 102.74L249.398 97.4095L246.889 92.7986ZM262.832 102.626C262.238 102.688 261.674 102.635 261.14 102.466C260.605 102.286 260.13 102.019 259.715 101.666C259.299 101.302 258.956 100.872 258.686 100.375C258.427 99.8765 258.264 99.3305 258.198 98.7368C258.112 97.9629 258.208 97.2342 258.486 96.5508C258.775 95.8662 259.211 95.3002 259.795 94.8527C260.377 94.3947 261.066 94.1239 261.862 94.0402C262.678 93.9544 263.411 94.0758 264.059 94.4045C264.718 94.7321 265.259 95.2008 265.681 95.8107C266.101 96.41 266.354 97.0913 266.439 97.8546C266.449 97.9394 266.458 98.0242 266.467 98.109C266.476 98.1832 266.477 98.2421 266.471 98.2856L259.374 99.0315C259.493 99.6196 259.716 100.132 260.044 100.57C260.381 100.996 260.788 101.323 261.264 101.552C261.75 101.769 262.258 101.849 262.788 101.794C263.329 101.737 263.823 101.546 264.27 101.22C264.727 100.893 265.026 100.497 265.168 100.031L266.135 100.187C266.009 100.597 265.789 100.98 265.474 101.334C265.159 101.689 264.773 101.982 264.316 102.212C263.868 102.431 263.373 102.569 262.832 102.626ZM259.256 98.2557L265.382 97.6118C265.272 97.012 265.049 96.4992 264.712 96.0734C264.385 95.6466 263.98 95.3299 263.495 95.1234C263.02 94.9052 262.512 94.8245 261.971 94.8814C261.43 94.9382 260.952 95.1226 260.536 95.4345C260.118 95.7357 259.792 96.1346 259.558 96.6312C259.333 97.116 259.232 97.6575 259.256 98.2557ZM271.696 99.12C271.638 98.6005 271.737 98.1397 271.993 97.7374C272.247 97.3245 272.623 96.9901 273.121 96.734C273.628 96.4662 274.226 96.2961 274.915 96.2237C275.318 96.1813 275.741 96.169 276.183 96.1869C276.625 96.2048 277.023 96.2595 277.376 96.3511L277.299 95.6514C277.221 94.9517 276.952 94.4169 276.492 94.0469C276.033 93.6769 275.437 93.5304 274.705 93.6074C274.259 93.6542 273.829 93.7853 273.413 94.0006C273.006 94.2042 272.587 94.4896 272.155 94.8567L271.657 94.1369C272.157 93.709 272.656 93.3776 273.156 93.1427C273.655 92.8973 274.175 92.7461 274.716 92.6892C275.734 92.5822 276.573 92.789 277.231 93.3096C277.89 93.8303 278.277 94.6048 278.391 95.6331L278.817 99.4655C278.834 99.6139 278.878 99.7218 278.95 99.7894C279.021 99.8463 279.126 99.8728 279.265 99.8689L279.36 100.728C279.245 100.75 279.145 100.772 279.062 100.791C278.978 100.811 278.914 100.817 278.871 100.811C278.604 100.829 278.393 100.765 278.238 100.62C278.082 100.476 277.989 100.314 277.958 100.135L277.875 99.5323C277.557 100.048 277.115 100.47 276.551 100.798C275.985 101.115 275.395 101.305 274.779 101.37C274.249 101.426 273.754 101.365 273.294 101.188C272.844 101 272.476 100.727 272.189 100.371C271.912 100.004 271.748 99.5865 271.696 99.12ZM277.32 99.1724C277.42 99.0117 277.494 98.8591 277.543 98.7146C277.591 98.5701 277.609 98.4448 277.598 98.3388L277.463 97.1303C277.087 97.0304 276.699 96.9639 276.298 96.931C275.908 96.8969 275.517 96.9005 275.124 96.9418C274.35 97.0232 273.741 97.2427 273.298 97.6003C272.854 97.9579 272.662 98.4017 272.721 98.9318C272.755 99.2392 272.867 99.5224 273.057 99.7813C273.246 100.03 273.504 100.228 273.832 100.376C274.158 100.513 274.528 100.56 274.942 100.516C275.462 100.462 275.933 100.31 276.356 100.062C276.79 99.8126 277.111 99.5161 277.32 99.1724ZM284.622 92.758C283.903 92.8551 283.289 93.1234 282.78 93.563C282.282 94.0015 281.958 94.5664 281.809 95.2577L282.382 100.41L281.3 100.524L280.379 92.2388L281.397 92.1317L281.619 94.1195C281.84 93.5063 282.164 92.995 282.591 92.5855C283.028 92.1748 283.51 91.9205 284.035 91.8223C284.14 91.8005 284.23 91.7858 284.304 91.778C284.389 91.769 284.459 91.7671 284.513 91.7721L284.622 92.758ZM290.213 99.7478C289.619 99.8103 289.055 99.7569 288.521 99.5878C287.986 99.4081 287.511 99.1417 287.096 98.7884C286.68 98.4246 286.337 97.9941 286.067 97.4969C285.807 96.9987 285.645 96.4527 285.579 95.859C285.493 95.0851 285.589 94.3564 285.867 93.673C286.156 92.9884 286.592 92.4224 287.175 91.9749C287.757 91.5169 288.446 91.2461 289.242 91.1624C290.059 91.0766 290.791 91.198 291.44 91.5267C292.099 91.8543 292.639 92.323 293.061 92.9329C293.482 93.5322 293.735 94.2135 293.82 94.9768C293.829 95.0616 293.838 95.1464 293.848 95.2312C293.856 95.3054 293.857 95.3643 293.851 95.4078L286.754 96.1537C286.874 96.7418 287.097 97.2546 287.425 97.6921C287.762 98.1178 288.168 98.4451 288.645 98.6739C289.13 98.891 289.638 98.9717 290.169 98.9159C290.71 98.8591 291.203 98.6677 291.65 98.3419C292.108 98.015 292.407 97.6189 292.548 97.1535L293.515 97.3093C293.389 97.7194 293.169 98.1019 292.854 98.4567C292.54 98.8115 292.154 99.1041 291.696 99.3345C291.248 99.5532 290.754 99.691 290.213 99.7478ZM286.636 95.3779L292.762 94.734C292.653 94.1342 292.429 93.6214 292.092 93.1956C291.766 92.7688 291.36 92.4521 290.876 92.2456C290.401 92.0274 289.893 91.9467 289.352 92.0036C288.811 92.0604 288.332 92.2448 287.916 92.5567C287.499 92.8579 287.173 93.2568 286.938 93.7534C286.713 94.2382 286.612 94.7797 286.636 95.3779ZM299.076 96.2422C299.018 95.7227 299.117 95.2619 299.373 94.8596C299.628 94.4467 300.004 94.1123 300.501 93.8562C301.008 93.5884 301.606 93.4183 302.296 93.3459C302.699 93.3035 303.121 93.2912 303.563 93.3091C304.005 93.327 304.403 93.3817 304.757 93.4733L304.679 92.7736C304.601 92.0739 304.333 91.5391 303.873 91.1691C303.413 90.7991 302.817 90.6526 302.085 90.7296C301.64 90.7764 301.209 90.9075 300.793 91.1228C300.386 91.3264 299.967 91.6118 299.536 91.9789L299.037 91.2591C299.537 90.8312 300.037 90.4998 300.537 90.2649C301.035 90.0195 301.555 89.8683 302.096 89.8114C303.114 89.7044 303.953 89.9112 304.612 90.4318C305.271 90.9525 305.657 91.727 305.772 92.7553L306.198 96.5877C306.214 96.7361 306.259 96.844 306.331 96.9116C306.401 96.9685 306.506 96.995 306.645 96.9911L306.741 97.8498C306.625 97.8727 306.526 97.8939 306.442 97.9134C306.358 97.9329 306.295 97.9396 306.251 97.9335C305.985 97.9507 305.774 97.8871 305.618 97.7426C305.462 97.5981 305.369 97.4362 305.339 97.2571L305.256 96.6545C304.937 97.1706 304.496 97.5924 303.931 97.9199C303.366 98.2367 302.775 98.4275 302.16 98.4922C301.629 98.5479 301.134 98.4873 300.675 98.3104C300.224 98.1218 299.856 97.8495 299.57 97.4935C299.293 97.1258 299.128 96.7087 299.076 96.2422ZM304.7 96.2946C304.801 96.1339 304.875 95.9813 304.923 95.8368C304.971 95.6923 304.99 95.567 304.978 95.461L304.844 94.2525C304.468 94.1526 304.079 94.0861 303.678 94.0532C303.288 94.0191 302.897 94.0227 302.504 94.064C301.73 94.1454 301.121 94.3649 300.678 94.7225C300.235 95.0801 300.043 95.5239 300.102 96.054C300.136 96.3614 300.248 96.6446 300.438 96.9035C300.626 97.1518 300.884 97.3499 301.212 97.4978C301.539 97.6351 301.909 97.682 302.322 97.6385C302.842 97.5839 303.314 97.4324 303.737 97.1842C304.171 96.9348 304.492 96.6383 304.7 96.2946ZM315.65 96.9134L314.568 97.0271L314.054 92.3996C313.945 91.4243 313.723 90.7291 313.387 90.3139C313.05 89.8882 312.574 89.7076 311.959 89.7723C311.534 89.8169 311.127 89.9669 310.737 90.2224C310.346 90.4674 310.011 90.7868 309.733 91.1806C309.464 91.5628 309.286 91.9891 309.199 92.4594L309.763 97.5322L308.681 97.6459L307.76 89.361L308.746 89.2573L308.955 91.1337C309.133 90.7074 309.386 90.3269 309.713 89.9922C310.04 89.6468 310.422 89.3654 310.859 89.1478C311.296 88.9303 311.759 88.7958 312.247 88.7445C312.703 88.6966 313.1 88.7407 313.437 88.8769C313.774 89.0131 314.056 89.2301 314.282 89.5281C314.507 89.8155 314.687 90.1773 314.821 90.6137C314.954 91.0394 315.051 91.5226 315.111 92.0633L315.65 96.9134ZM322.014 96.2446L321.092 87.9596L322.174 87.8459L323.096 96.1308L322.014 96.2446ZM320.9 86.2263L320.723 84.6361L321.805 84.5224L321.982 86.1126L320.9 86.2263ZM332.449 95.1478L331.366 95.2615L330.852 90.6341C330.743 89.6587 330.521 88.9635 330.185 88.5484C329.848 88.1226 329.372 87.9421 328.757 88.0067C328.332 88.0513 327.925 88.2014 327.535 88.4569C327.144 88.7018 326.809 89.0212 326.531 89.4151C326.262 89.7973 326.084 90.2235 325.997 90.6939L326.561 95.7666L325.479 95.8804L324.558 87.5954L325.544 87.4917L325.753 89.3682C325.931 88.9419 326.184 88.5614 326.511 88.2266C326.838 87.8813 327.22 87.5998 327.657 87.3823C328.094 87.1647 328.557 87.0303 329.045 86.979C329.501 86.9311 329.898 86.9752 330.235 87.1113C330.572 87.2475 330.854 87.4646 331.08 87.7626C331.305 88.0499 331.485 88.4118 331.619 88.8481C331.752 89.2738 331.849 89.757 331.909 90.2977L332.449 95.1478ZM333.741 90.8452C333.654 90.0607 333.733 89.3284 333.98 88.6483C334.235 87.9564 334.628 87.3843 335.157 86.9318C335.686 86.4794 336.317 86.2147 337.049 86.1377C337.738 86.0653 338.374 86.1861 338.957 86.5003C339.548 86.8028 340.027 87.1976 340.392 87.6847L339.83 82.6279L340.912 82.5141L342.058 92.8186C342.074 92.967 342.119 93.075 342.191 93.1425C342.261 93.1995 342.361 93.2265 342.489 93.2237L342.585 94.0824C342.376 94.1366 342.213 94.1644 342.095 94.1661C341.871 94.1789 341.665 94.1094 341.476 93.9576C341.288 93.8059 341.182 93.6293 341.16 93.4278L341.07 92.6168C340.801 93.1921 340.403 93.6682 339.876 94.0454C339.349 94.4225 338.784 94.6429 338.179 94.7064C337.606 94.7666 337.063 94.7058 336.549 94.5238C336.045 94.3408 335.591 94.0668 335.186 93.7018C334.791 93.3358 334.464 92.9089 334.206 92.4212C333.957 91.9218 333.802 91.3965 333.741 90.8452ZM340.804 91.3899L340.52 88.8296C340.339 88.4625 340.078 88.1414 339.736 87.8663C339.393 87.5805 339.016 87.3682 338.603 87.2292C338.2 87.0786 337.807 87.0233 337.426 87.0634C336.98 87.1103 336.587 87.248 336.248 87.4768C335.907 87.6949 335.622 87.9769 335.392 88.3228C335.173 88.6676 335.017 89.0487 334.924 89.4661C334.831 89.8834 334.808 90.3041 334.855 90.7281C334.904 91.1734 335.026 91.5897 335.219 91.9769C335.423 92.363 335.686 92.7 336.008 92.988C336.328 93.2653 336.684 93.4693 337.074 93.5999C337.464 93.7305 337.876 93.7729 338.311 93.7272C338.587 93.6982 338.868 93.6151 339.153 93.4779C339.438 93.3406 339.703 93.168 339.949 92.9599C340.203 92.7401 340.407 92.4935 340.559 92.2201C340.711 91.9467 340.793 91.67 340.804 91.3899ZM344.195 90.4543L343.654 85.5883L344.736 85.4746L345.256 90.1498C345.361 91.0933 345.598 91.7816 345.968 92.2146C346.349 92.6465 346.857 92.829 347.494 92.7621C347.918 92.7175 348.317 92.5844 348.689 92.363C349.071 92.1298 349.397 91.8274 349.667 91.4558C349.936 91.0736 350.124 90.6463 350.233 90.1737L349.653 84.9578L350.735 84.8441L351.511 91.8251C351.527 91.9735 351.572 92.0815 351.644 92.149C351.714 92.2059 351.814 92.233 351.942 92.2302L352.038 93.0889C351.912 93.1129 351.812 93.1288 351.737 93.1366C351.664 93.155 351.596 93.1675 351.532 93.1742C351.318 93.1753 351.123 93.11 350.947 92.9783C350.782 92.8455 350.682 92.6737 350.648 92.4627L350.493 91.3529C350.203 92.0269 349.765 92.577 349.179 93.0033C348.604 93.4284 347.955 93.6788 347.234 93.7547C346.364 93.8461 345.673 93.6131 345.16 93.0556C344.647 92.4982 344.326 91.6311 344.195 90.4543ZM356.841 92.7449C356.162 92.8163 355.519 92.7713 354.91 92.61C354.302 92.4487 353.761 92.1624 353.286 91.7512L353.646 90.941C354.161 91.3266 354.664 91.5956 355.153 91.748C355.651 91.8886 356.166 91.9311 356.696 91.8753C357.343 91.8073 357.854 91.6249 358.229 91.3281C358.603 91.0207 358.762 90.6232 358.708 90.1355C358.672 89.8069 358.543 89.5683 358.323 89.4199C358.112 89.2597 357.815 89.1462 357.432 89.0792C357.058 89.0005 356.609 88.9243 356.086 88.8506C355.496 88.7518 354.995 88.6382 354.583 88.5098C354.181 88.3697 353.865 88.1778 353.634 87.9339C353.412 87.6784 353.277 87.3332 353.229 86.8986C353.169 86.3579 353.252 85.8987 353.478 85.521C353.714 85.1316 354.055 84.8222 354.502 84.5929C354.958 84.3519 355.478 84.2008 356.061 84.1395C356.698 84.0726 357.271 84.1142 357.782 84.2643C358.292 84.4144 358.721 84.6536 359.069 84.9817L358.625 85.7684C358.29 85.4603 357.907 85.2486 357.476 85.133C357.054 85.0058 356.594 84.9683 356.095 85.0208C355.755 85.0564 355.437 85.1381 355.14 85.2659C354.842 85.383 354.604 85.5582 354.426 85.7914C354.257 86.0129 354.193 86.3039 354.233 86.6643C354.266 86.9612 354.366 87.1866 354.534 87.3406C354.7 87.484 354.938 87.5984 355.248 87.6838C355.557 87.7586 355.936 87.8368 356.385 87.9183C357.03 88.0221 357.595 88.1396 358.082 88.2708C358.568 88.3913 358.953 88.576 359.239 88.8249C359.524 89.0738 359.694 89.4474 359.75 89.9456C359.836 90.7195 359.611 91.3545 359.076 91.8504C358.541 92.3464 357.796 92.6446 356.841 92.7449ZM365.728 91.2478C365.647 91.2885 365.521 91.3607 365.35 91.4645C365.179 91.5683 364.97 91.6653 364.722 91.7557C364.475 91.8461 364.203 91.9069 363.906 91.9381C363.598 91.9704 363.3 91.9428 363.011 91.8551C362.733 91.7664 362.501 91.6138 362.316 91.3973C362.13 91.1702 362.017 90.8817 361.978 90.5318L361.319 84.6004L360.173 84.7208L360.078 83.8621L361.223 83.7417L360.912 80.943L361.994 80.8292L362.305 83.628L364.215 83.4273L364.31 84.286L362.401 84.4867L363.027 90.116C363.081 90.4106 363.212 90.6221 363.419 90.7504C363.637 90.8777 363.874 90.9279 364.128 90.9011C364.425 90.8699 364.691 90.7938 364.924 90.6727C365.156 90.5411 365.296 90.4512 365.345 90.4033L365.728 91.2478ZM370.447 83.7376C369.728 83.8346 369.113 84.1029 368.604 84.5425C368.106 84.9811 367.782 85.546 367.634 86.2373L368.207 91.3895L367.124 91.5032L366.203 83.2183L367.222 83.1113L367.443 85.099C367.664 84.4858 367.988 83.9745 368.415 83.565C368.852 83.1544 369.334 82.9 369.86 82.8018C369.964 82.7801 370.054 82.7653 370.128 82.7575C370.213 82.7486 370.283 82.7466 370.337 82.7516L370.447 83.7376ZM373.463 93.411C373.613 93.406 373.757 93.3963 373.895 93.3818C374.034 93.3779 374.134 93.362 374.195 93.3341C374.32 93.2995 374.434 93.2125 374.537 93.073C374.639 92.9335 374.75 92.6752 374.869 92.298C374.988 91.9209 375.152 91.3674 375.361 90.6376L370.827 82.7323L371.973 82.6119L375.81 89.4642L377.813 81.9981L378.895 81.8844L375.787 93.0221C375.735 93.2313 375.644 93.4285 375.514 93.6137C375.386 93.8096 375.216 93.9669 375.003 94.0857C374.803 94.214 374.544 94.3002 374.227 94.3443C374.133 94.3649 374.032 94.3755 373.925 94.3761C373.829 94.3861 373.712 94.3878 373.571 94.381L373.463 93.411ZM380.556 86.2144L380.444 85.2125L385.091 84.7242L385.202 85.726L380.556 86.2144ZM388.252 89.2826L387.426 81.8564L386.28 81.9768L386.185 81.1181L387.331 80.9977L387.306 80.7751C387.23 80.0966 387.261 79.5035 387.398 78.9958C387.545 78.4869 387.785 78.0863 388.117 77.794C388.459 77.4899 388.879 77.3117 389.378 77.2593C389.707 77.2247 390.03 77.239 390.349 77.3021C390.667 77.3651 390.946 77.4645 391.187 77.6001L390.939 78.4144C390.788 78.3123 390.598 78.2411 390.368 78.2009C390.138 78.1607 389.912 78.1524 389.689 78.1758C389.191 78.2282 388.825 78.465 388.593 78.8862C388.371 79.3064 388.302 79.8875 388.384 80.6296L388.413 80.884L390.704 80.6432L390.799 81.5019L388.508 81.7427L389.334 89.1689L388.252 89.2826ZM396.392 88.5879C395.798 88.6504 395.234 88.597 394.7 88.4279C394.176 88.2471 393.706 87.9801 393.291 87.6268C392.886 87.2619 392.554 86.8356 392.296 86.3479C392.037 85.8496 391.875 85.3142 391.811 84.7418C391.745 84.1481 391.785 83.5862 391.93 83.0562C392.074 82.5155 392.309 82.0296 392.637 81.5983C392.963 81.1564 393.364 80.798 393.837 80.523C394.321 80.2362 394.859 80.0616 395.453 79.9992C396.048 79.9367 396.607 79.9959 397.131 80.1768C397.655 80.347 398.124 80.614 398.54 80.9778C398.955 81.3311 399.293 81.7568 399.552 82.2551C399.81 82.7428 399.972 83.2834 400.038 83.8771C400.102 84.4496 400.062 85.0061 399.918 85.5468C399.773 86.0768 399.537 86.5628 399.211 87.0047C398.894 87.4348 398.493 87.7933 398.01 88.08C397.536 88.3551 396.997 88.5244 396.392 88.5879ZM392.911 84.6423C392.979 85.2572 393.175 85.8051 393.496 86.2861C393.828 86.7554 394.238 87.1144 394.727 87.3633C395.215 87.6016 395.735 87.6918 396.286 87.6338C396.838 87.5758 397.325 87.3744 397.748 87.0297C398.172 86.6849 398.493 86.2436 398.712 85.7057C398.93 85.1573 399.006 84.5809 398.938 83.9766C398.87 83.3617 398.67 82.8144 398.337 82.3345C398.005 81.8546 397.594 81.4902 397.105 81.2413C396.616 80.9924 396.095 80.897 395.544 80.955C394.992 81.0129 394.505 81.2196 394.083 81.575C393.672 81.9293 393.357 82.3753 393.137 82.9132C392.917 83.4404 392.842 84.0168 392.911 84.6423ZM405.92 87.5866C405.315 87.6501 404.746 87.5973 404.212 87.4282C403.687 87.2474 403.212 86.9756 402.785 86.6129C402.369 86.2491 402.026 85.8186 401.756 85.3214C401.496 84.8232 401.334 84.2825 401.27 83.6994C401.182 82.9149 401.278 82.1809 401.556 81.4975C401.834 80.814 402.265 80.2485 402.848 79.8011C403.432 79.3537 404.132 79.087 404.949 79.0012C405.723 78.9198 406.427 79.0281 407.062 79.3261C407.695 79.6135 408.188 80.0443 408.541 80.6185L407.528 81.0628C407.248 80.6633 406.882 80.3692 406.432 80.1806C405.991 79.9802 405.516 79.9068 405.007 79.9603C404.456 80.0183 403.968 80.2144 403.543 80.5485C403.119 80.8827 402.797 81.3134 402.576 81.8407C402.366 82.3668 402.297 82.9479 402.368 83.584C402.437 84.2095 402.638 84.7622 402.97 85.242C403.303 85.7219 403.714 86.0916 404.205 86.3511C404.694 86.6 405.214 86.6955 405.766 86.6375C406.126 86.5996 406.464 86.4997 406.779 86.3379C407.104 86.175 407.377 85.9748 407.597 85.7371C407.827 85.4877 407.97 85.2313 408.027 84.968L409.129 85.174C409.024 85.5818 408.814 85.9632 408.499 86.318C408.194 86.6611 407.818 86.9473 407.371 87.1766C406.934 87.3942 406.45 87.5308 405.92 87.5866ZM410.579 83.4771L410.038 78.6111L411.12 78.4973L411.64 83.1725C411.745 84.116 411.982 84.8043 412.352 85.2373C412.733 85.6692 413.242 85.8517 413.878 85.7848C414.303 85.7402 414.701 85.6072 415.074 85.3857C415.455 85.1525 415.781 84.8501 416.051 84.4785C416.32 84.0964 416.509 83.669 416.617 83.1964L416.037 77.9806L417.119 77.8668L417.895 84.8478C417.912 84.9962 417.956 85.1042 418.028 85.1717C418.099 85.2286 418.198 85.2557 418.327 85.2529L418.422 86.1116C418.296 86.1356 418.196 86.1515 418.122 86.1593C418.049 86.1777 417.98 86.1903 417.917 86.1969C417.702 86.198 417.507 86.1327 417.331 86.001C417.166 85.8682 417.067 85.6964 417.032 85.4855L416.877 84.3757C416.587 85.0497 416.149 85.5998 415.563 86.026C414.988 86.4511 414.34 86.7016 413.618 86.7774C412.749 86.8688 412.057 86.6358 411.545 86.0784C411.032 85.5209 410.71 84.6538 410.579 83.4771ZM423.226 85.7676C422.547 85.839 421.903 85.794 421.295 85.6327C420.687 85.4714 420.145 85.1851 419.67 84.7739L420.031 83.9638C420.546 84.3494 421.048 84.6183 421.537 84.7707C422.036 84.9114 422.55 84.9538 423.081 84.8981C423.728 84.83 424.239 84.6476 424.613 84.3508C424.987 84.0434 425.147 83.6459 425.093 83.1582C425.056 82.8296 424.927 82.5911 424.707 82.4426C424.496 82.2825 424.199 82.1689 423.816 82.1019C423.442 82.0232 422.994 81.947 422.47 81.8733C421.88 81.7745 421.379 81.6609 420.968 81.5325C420.566 81.3925 420.249 81.2005 420.018 80.9566C419.797 80.7011 419.662 80.356 419.613 79.9213C419.553 79.3806 419.636 78.9215 419.863 78.5437C420.098 78.1543 420.44 77.8449 420.886 77.6157C421.342 77.3747 421.862 77.2235 422.446 77.1622C423.082 77.0953 423.656 77.1369 424.166 77.287C424.676 77.4372 425.105 77.6763 425.453 78.0044L425.009 78.7911C424.675 78.4831 424.292 78.2713 423.86 78.1558C423.438 78.0285 422.978 77.9911 422.479 78.0435C422.14 78.0792 421.822 78.1609 421.525 78.2886C421.226 78.4058 420.988 78.5809 420.81 78.8141C420.642 79.0356 420.577 79.3266 420.618 79.6871C420.651 79.9839 420.751 80.2093 420.918 80.3633C421.084 80.5067 421.322 80.6211 421.632 80.7065C421.941 80.7813 422.32 80.8595 422.769 80.941C423.414 81.0448 423.98 81.1623 424.467 81.2935C424.952 81.414 425.338 81.5988 425.623 81.8476C425.908 82.0965 426.078 82.4701 426.134 82.9683C426.22 83.7422 425.995 84.3772 425.46 84.8732C424.925 85.3691 424.18 85.6673 423.226 85.7676ZM431.777 84.8689C431.183 84.9313 430.619 84.878 430.085 84.7089C429.55 84.5292 429.075 84.2627 428.66 83.9095C428.244 83.5456 427.901 83.1151 427.631 82.618C427.371 82.1197 427.209 81.5737 427.143 80.98C427.057 80.2061 427.153 79.4775 427.431 78.794C427.72 78.1094 428.156 77.5434 428.739 77.096C429.321 76.6379 430.01 76.3671 430.806 76.2835C431.623 76.1976 432.355 76.319 433.004 76.6477C433.663 76.9753 434.203 77.4441 434.625 78.0539C435.046 78.6532 435.299 79.3345 435.384 80.0978C435.393 80.1826 435.402 80.2674 435.412 80.3522C435.42 80.4265 435.421 80.4853 435.415 80.5288L428.318 81.2748C428.437 81.8629 428.661 82.3756 428.989 82.8131C429.326 83.2389 429.732 83.5661 430.209 83.7949C430.694 84.012 431.202 84.0927 431.733 84.037C432.274 83.9801 432.767 83.7888 433.214 83.4629C433.672 83.136 433.971 82.7399 434.112 82.2746L435.079 82.4303C434.953 82.8404 434.733 83.2229 434.418 83.5777C434.104 83.9325 433.717 84.2252 433.26 84.4556C432.812 84.6742 432.318 84.812 431.777 84.8689ZM428.2 80.4989L434.326 79.855C434.217 79.2552 433.993 78.7424 433.656 78.3167C433.33 77.8898 432.924 77.5731 432.44 77.3666C431.965 77.1484 431.457 77.0677 430.916 77.1246C430.375 77.1815 429.896 77.3658 429.48 77.6777C429.063 77.979 428.737 78.3779 428.502 78.8744C428.277 79.3593 428.176 79.9008 428.2 80.4989ZM436.503 80.0445C436.416 79.26 436.495 78.5277 436.742 77.8475C436.997 77.1557 437.39 76.5836 437.919 76.1311C438.448 75.6786 439.079 75.4139 439.811 75.337C440.501 75.2645 441.136 75.3854 441.719 75.6996C442.31 76.002 442.789 76.3968 443.154 76.884L442.592 71.8271L443.674 71.7134L444.82 82.0179C444.836 82.1663 444.881 82.2743 444.953 82.3418C445.023 82.3987 445.123 82.4258 445.251 82.423L445.347 83.2817C445.138 83.3358 444.975 83.3637 444.857 83.3654C444.633 83.3782 444.427 83.3087 444.238 83.1569C444.05 83.0051 443.944 82.8285 443.922 82.6271L443.832 81.8161C443.563 82.3913 443.165 82.8675 442.638 83.2447C442.111 83.6218 441.546 83.8421 440.941 83.9057C440.368 83.9659 439.825 83.905 439.311 83.7231C438.807 83.54 438.353 83.266 437.948 82.9011C437.553 82.535 437.226 82.1082 436.968 81.6205C436.719 81.1211 436.564 80.5958 436.503 80.0445ZM443.566 80.5891L443.282 78.0289C443.101 77.6618 442.84 77.3406 442.498 77.0655C442.155 76.7798 441.778 76.5675 441.365 76.4285C440.962 76.2778 440.57 76.2226 440.188 76.2627C439.742 76.3095 439.35 76.4473 439.01 76.676C438.669 76.8942 438.384 77.1762 438.154 77.5221C437.935 77.8669 437.779 78.248 437.686 78.6653C437.593 79.0827 437.57 79.5034 437.617 79.9274C437.666 80.3727 437.788 80.7889 437.981 81.1762C438.185 81.5623 438.448 81.8993 438.77 82.1873C439.09 82.4646 439.446 82.6686 439.836 82.7992C440.226 82.9297 440.639 82.9722 441.074 82.9265C441.349 82.8975 441.63 82.8144 441.915 82.6771C442.2 82.5399 442.466 82.3672 442.711 82.1591C442.965 81.9393 443.169 81.6927 443.321 81.4194C443.473 81.146 443.555 80.8692 443.566 80.5891ZM455.023 82.4256C454.429 82.4881 453.865 82.4347 453.331 82.2656C452.806 82.0848 452.336 81.8178 451.921 81.4646C451.516 81.0996 451.184 80.6733 450.926 80.1856C450.667 79.6873 450.505 79.152 450.442 78.5795C450.376 77.9858 450.415 77.424 450.56 76.8939C450.704 76.3533 450.94 75.8673 451.267 75.436C451.594 74.9942 451.994 74.6357 452.468 74.3607C452.951 74.0739 453.49 73.8993 454.084 73.8369C454.678 73.7745 455.237 73.8336 455.762 74.0145C456.285 74.1847 456.755 74.4517 457.171 74.8155C457.586 75.1688 457.923 75.5945 458.182 76.0928C458.44 76.5805 458.602 77.1212 458.668 77.7148C458.732 78.2873 458.692 78.8439 458.548 79.3845C458.403 79.9146 458.167 80.4005 457.841 80.8424C457.524 81.2726 457.124 81.631 456.64 81.9178C456.167 82.1928 455.627 82.3621 455.023 82.4256ZM451.541 78.48C451.61 79.0949 451.805 79.6428 452.127 80.1238C452.458 80.5931 452.868 80.9522 453.357 81.201C453.845 81.4393 454.365 81.5295 454.917 81.4715C455.468 81.4135 455.956 81.2122 456.379 80.8674C456.802 80.5226 457.123 80.0813 457.342 79.5434C457.56 78.995 457.636 78.4186 457.569 77.8143C457.5 77.1995 457.3 76.6521 456.967 76.1722C456.635 75.6923 456.224 75.328 455.735 75.0791C455.246 74.8302 454.725 74.7347 454.174 74.7927C453.622 74.8507 453.135 75.0573 452.713 75.4127C452.302 75.767 451.987 76.2131 451.768 76.7509C451.547 77.2782 451.472 77.8545 451.541 78.48ZM467.905 80.9107L466.823 81.0244L466.309 76.397C466.2 75.4216 465.978 74.7264 465.642 74.3113C465.305 73.8855 464.829 73.705 464.214 73.7696C463.789 73.8142 463.382 73.9643 462.992 74.2198C462.601 74.4647 462.266 74.7841 461.988 75.178C461.719 75.5602 461.541 75.9864 461.454 76.4568L462.018 81.5295L460.936 81.6432L460.015 73.3583L461.001 73.2546L461.21 75.1311C461.388 74.7048 461.641 74.3243 461.968 73.9895C462.295 73.6442 462.677 73.3627 463.114 73.1452C463.551 72.9276 464.014 72.7932 464.502 72.7419C464.958 72.6939 465.355 72.7381 465.692 72.8742C466.029 73.0104 466.311 73.2275 466.537 73.5254C466.762 73.8128 466.942 74.1747 467.076 74.611C467.209 75.0367 467.306 75.5199 467.366 76.0606L467.905 80.9107ZM468.97 69.0547L470.052 68.941L471.134 78.673C471.18 79.0865 471.284 79.349 471.447 79.4606C471.61 79.5722 471.797 79.6169 472.009 79.5946C472.2 79.5745 472.389 79.5332 472.575 79.4707C472.761 79.4083 472.921 79.3486 473.054 79.2917L473.342 80.1462C473.15 80.2522 472.909 80.3473 472.617 80.4316C472.337 80.5147 472.091 80.5674 471.878 80.5897C471.39 80.641 470.982 80.5391 470.653 80.2841C470.335 80.0279 470.148 79.6508 470.093 79.1525L468.97 69.0547ZM474.548 80.2125L473.627 71.9276L474.709 71.8139L475.63 80.0988L474.548 80.2125ZM473.434 70.1943L473.258 68.6041L474.34 68.4903L474.516 70.0805L473.434 70.1943ZM484.983 79.1158L483.901 79.2295L483.387 74.602C483.278 73.6267 483.056 72.9315 482.72 72.5163C482.383 72.0906 481.907 71.91 481.292 71.9747C480.867 72.0193 480.46 72.1693 480.07 72.4248C479.678 72.6697 479.344 72.9892 479.066 73.383C478.797 73.7652 478.619 74.1915 478.532 74.6618L479.096 79.7346L478.014 79.8483L477.092 71.5634L478.079 71.4597L478.288 73.3361C478.466 72.9098 478.718 72.5293 479.046 72.1946C479.373 71.8492 479.754 71.5678 480.192 71.3502C480.629 71.1327 481.092 70.9982 481.58 70.9469C482.036 70.899 482.432 70.9431 482.77 71.0793C483.107 71.2155 483.388 71.4325 483.615 71.7305C483.84 72.0179 484.02 72.3797 484.154 72.8161C484.287 73.2418 484.384 73.725 484.444 74.2657L484.983 79.1158ZM490.889 78.656C490.295 78.7184 489.731 78.6651 489.197 78.496C488.662 78.3162 488.187 78.0498 487.772 77.6966C487.356 77.3327 487.013 76.9022 486.743 76.4051C486.483 75.9068 486.321 75.3608 486.255 74.7671C486.169 73.9932 486.265 73.2646 486.543 72.5811C486.832 71.8965 487.268 71.3305 487.851 70.883C488.433 70.425 489.122 70.1542 489.918 70.0706C490.735 69.9847 491.467 70.1061 492.116 70.4348C492.774 70.7624 493.315 71.2311 493.737 71.841C494.158 72.4403 494.411 73.1216 494.495 73.8849C494.505 73.9697 494.514 74.0545 494.524 74.1393C494.532 74.2135 494.533 74.2724 494.527 74.3159L487.43 75.0618C487.549 75.6499 487.773 76.1627 488.1 76.6002C488.438 77.0259 488.844 77.3532 489.32 77.582C489.806 77.7991 490.314 77.8798 490.844 77.824C491.385 77.7672 491.879 77.5758 492.326 77.25C492.783 76.9231 493.083 76.527 493.224 76.0617L494.191 76.2174C494.065 76.6275 493.845 77.01 493.53 77.3648C493.215 77.7196 492.829 78.0123 492.372 78.2426C491.924 78.4613 491.43 78.5991 490.889 78.656ZM487.312 74.286L493.438 73.6421C493.328 73.0423 493.105 72.5295 492.768 72.1037C492.441 71.6769 492.036 71.3602 491.552 71.1537C491.077 70.9355 490.569 70.8548 490.028 70.9117C489.486 70.9686 489.008 71.1529 488.592 71.4648C488.175 71.766 487.849 72.165 487.614 72.6615C487.389 73.1464 487.288 73.6879 487.312 74.286ZM504.62 76.6497C504.538 76.6904 504.412 76.7627 504.241 76.8664C504.07 76.9702 503.861 77.0673 503.614 77.1576C503.366 77.248 503.094 77.3088 502.797 77.34C502.489 77.3724 502.191 77.3447 501.902 77.2571C501.624 77.1683 501.392 77.0157 501.207 76.7992C501.021 76.5721 500.908 76.2836 500.87 75.9338L500.21 70.0024L499.064 70.1228L498.969 69.2641L500.114 69.1436L499.803 66.3449L500.885 66.2312L501.197 69.0299L503.106 68.8292L503.201 69.6879L501.292 69.8886L501.918 75.5179C501.972 75.8125 502.103 76.024 502.31 76.1524C502.529 76.2796 502.765 76.3298 503.019 76.3031C503.317 76.2719 503.582 76.1957 503.815 76.0747C504.047 75.943 504.188 75.8532 504.236 75.8052L504.62 76.6497ZM509.474 76.7026C508.88 76.765 508.316 76.7117 507.782 76.5426C507.247 76.3629 506.772 76.0964 506.357 75.7432C505.941 75.3794 505.598 74.9489 505.328 74.4517C505.068 73.9534 504.906 73.4074 504.84 72.8138C504.754 72.0399 504.85 71.3112 505.128 70.6277C505.417 69.9431 505.853 69.3771 506.436 68.9297C507.018 68.4716 507.707 68.2008 508.503 68.1172C509.32 68.0313 510.052 68.1528 510.701 68.4815C511.36 68.809 511.9 69.2778 512.322 69.8877C512.743 70.4869 512.996 71.1682 513.081 71.9315C513.09 72.0163 513.099 72.1011 513.109 72.186C513.117 72.2602 513.118 72.319 513.112 72.3625L506.015 73.1085C506.135 73.6966 506.358 74.2093 506.686 74.6468C507.023 75.0726 507.429 75.3998 507.906 75.6287C508.391 75.8457 508.899 75.9264 509.43 75.8707C509.971 75.8138 510.464 75.6225 510.911 75.2967C511.369 74.9697 511.668 74.5736 511.809 74.1083L512.776 74.264C512.65 74.6741 512.43 75.0566 512.115 75.4114C511.801 75.7663 511.415 76.0589 510.957 76.2893C510.509 76.508 510.015 76.6457 509.474 76.7026ZM505.897 72.3326L512.023 71.6887C511.914 71.0889 511.69 70.5761 511.353 70.1504C511.027 69.7235 510.621 69.4068 510.137 69.2003C509.662 68.9821 509.154 68.9015 508.613 68.9583C508.072 69.0152 507.593 69.1995 507.177 69.5114C506.76 69.8127 506.434 70.2116 506.199 70.7081C505.974 71.193 505.873 71.7345 505.897 72.3326ZM518.829 75.7193C518.224 75.7829 517.655 75.7301 517.121 75.561C516.596 75.3802 516.121 75.1084 515.694 74.7457C515.278 74.3819 514.935 73.9514 514.665 73.4542C514.406 72.9559 514.244 72.4152 514.179 71.8322C514.092 71.0477 514.187 70.3137 514.465 69.6302C514.743 68.9467 515.174 68.3813 515.758 67.9339C516.341 67.4864 517.041 67.2198 517.858 67.1339C518.633 67.0525 519.337 67.1608 519.971 67.4588C520.604 67.7463 521.097 68.177 521.451 68.7512L520.438 69.1955C520.157 68.796 519.792 68.5019 519.342 68.3133C518.901 68.113 518.426 68.0395 517.916 68.0931C517.365 68.151 516.877 68.3471 516.453 68.6813C516.028 69.0155 515.706 69.4462 515.485 69.9734C515.276 70.4996 515.206 71.0807 515.277 71.7168C515.346 72.3422 515.547 72.8949 515.88 73.3748C516.212 73.8547 516.624 74.2244 517.114 74.4839C517.603 74.7327 518.123 74.8282 518.675 74.7702C519.036 74.7323 519.373 74.6325 519.688 74.4707C520.013 74.3078 520.286 74.1075 520.507 73.8698C520.737 73.6205 520.88 73.3641 520.936 73.1007L522.038 73.3067C521.933 73.7146 521.723 74.0959 521.408 74.4508C521.103 74.7939 520.727 75.0801 520.28 75.3094C519.843 75.5269 519.359 75.6636 518.829 75.7193ZM530.918 74.2879L529.836 74.4016L529.321 69.7741C529.217 68.8412 528.975 68.1588 528.594 67.7269C528.213 67.2844 527.714 67.0955 527.099 67.1601C526.696 67.2025 526.304 67.3509 525.925 67.6053C525.555 67.848 525.236 68.1657 524.968 68.5585C524.71 68.9395 524.543 69.3647 524.466 69.8339L525.03 74.9067L523.948 75.0204L522.657 63.4119L523.739 63.2982L524.318 68.4982C524.578 67.8487 524.98 67.3131 525.523 66.8914C526.076 66.4579 526.687 66.206 527.355 66.1358C527.832 66.0856 528.245 66.128 528.593 66.2631C528.951 66.397 529.249 66.6177 529.487 66.9252C529.735 67.2209 529.931 67.5811 530.074 68.0057C530.217 68.4197 530.318 68.8971 530.378 69.4378L530.918 74.2879ZM544.251 72.8865L543.169 73.0002L542.654 68.3728C542.55 67.4399 542.308 66.7574 541.927 66.3256C541.545 65.8831 541.047 65.6941 540.432 65.7588C540.028 65.8012 539.637 65.9496 539.258 66.204C538.887 66.4466 538.569 66.7644 538.301 67.1571C538.043 67.5382 537.876 67.9634 537.799 68.4326L538.363 73.5053L537.281 73.6191L535.99 62.0106L537.072 61.8969L537.65 67.0968C537.911 66.4474 538.313 65.9118 538.856 65.49C539.409 65.0565 540.02 64.8047 540.688 64.7344C541.165 64.6843 541.578 64.7267 541.925 64.8617C542.284 64.9957 542.582 65.2164 542.82 65.5238C543.068 65.8196 543.263 66.1798 543.407 66.6044C543.55 67.0184 543.651 67.4957 543.711 68.0364L544.251 72.8865ZM546.098 69.2334L545.557 64.3674L546.639 64.2537L547.159 68.9289C547.264 69.8724 547.502 70.5607 547.872 70.9937C548.252 71.4256 548.761 71.6081 549.397 71.5412C549.822 71.4966 550.22 71.3635 550.593 71.1421C550.975 70.9089 551.3 70.6065 551.57 70.2349C551.839 69.8527 552.028 69.4253 552.136 68.9528L551.556 63.7369L552.638 63.6232L553.414 70.6042C553.431 70.7526 553.475 70.8605 553.547 70.9281C553.618 70.985 553.717 71.0121 553.846 71.0093L553.941 71.868C553.815 71.892 553.715 71.9079 553.641 71.9157C553.568 71.9341 553.499 71.9466 553.436 71.9533C553.221 71.9544 553.026 71.8891 552.85 71.7574C552.685 71.6246 552.586 71.4527 552.552 71.2418L552.396 70.132C552.106 70.806 551.668 71.3561 551.082 71.7824C550.507 72.2075 549.859 72.4579 549.138 72.5338C548.268 72.6252 547.576 72.3922 547.064 71.8347C546.551 71.2773 546.229 70.4102 546.098 69.2334ZM560.081 71.3835C559.434 71.4515 558.817 71.3502 558.228 71.0796C557.639 70.7983 557.162 70.4194 556.798 69.9429L556.977 71.549L556.006 71.651L554.715 60.0425L555.797 59.9288L556.359 64.9856C556.668 64.3847 557.064 63.8874 557.546 63.4935C558.027 63.089 558.612 62.8505 559.301 62.7781C559.885 62.7167 560.418 62.784 560.902 62.9799C561.395 63.1747 561.83 63.4615 562.205 63.8404C562.578 64.2087 562.879 64.6436 563.106 65.1453C563.333 65.6363 563.476 66.1521 563.536 66.6928C563.601 67.2759 563.561 67.8324 563.416 68.3625C563.281 68.8914 563.056 69.3763 562.74 69.817C562.423 70.2472 562.039 70.604 561.588 70.8874C561.146 71.159 560.644 71.3244 560.081 71.3835ZM559.721 70.4562C560.166 70.4093 560.57 70.2757 560.932 70.0554C561.294 69.835 561.595 69.5513 561.835 69.2043C562.076 68.8573 562.248 68.4798 562.353 68.072C562.457 67.6535 562.485 67.2322 562.438 66.8082C562.373 66.2251 562.185 65.6925 561.874 65.2104C561.572 64.7166 561.181 64.3394 560.702 64.0788C560.231 63.8065 559.699 63.7015 559.105 63.764C558.681 63.8086 558.294 63.9458 557.944 64.1756C557.604 64.4044 557.309 64.6928 557.058 65.0409C556.816 65.3774 556.626 65.7406 556.487 66.1306L556.773 68.7067C556.848 68.9885 556.989 69.2471 557.198 69.4826C557.405 69.7075 557.651 69.8961 557.937 70.0484C558.232 70.1997 558.535 70.3127 558.844 70.3875C559.152 70.4623 559.445 70.4852 559.721 70.4562ZM570.28 70.1507L569.455 62.7244L568.309 62.8449L568.213 61.9862L569.359 61.8657L569.334 61.6431C569.259 60.9646 569.29 60.3715 569.426 59.8638C569.574 59.3549 569.814 58.9543 570.146 58.662C570.488 58.358 570.908 58.1797 571.407 58.1273C571.735 58.0928 572.059 58.107 572.377 58.1701C572.695 58.2332 572.975 58.3325 573.215 58.4681L572.968 59.2824C572.817 59.1803 572.626 59.1092 572.397 59.069C572.167 59.0288 571.94 59.0204 571.718 59.0438C571.219 59.0962 570.854 59.333 570.622 59.7543C570.4 60.1744 570.33 60.7555 570.413 61.4976L570.441 61.752L572.733 61.5112L572.828 62.3699L570.537 62.6107L571.362 70.0369L570.28 70.1507ZM578.421 69.4559C577.827 69.5184 577.263 69.465 576.729 69.2959C576.204 69.1151 575.735 68.8481 575.32 68.4949C574.914 68.1299 574.583 67.7036 574.324 67.2159C574.065 66.7176 573.904 66.1823 573.84 65.6098C573.774 65.0161 573.813 64.4543 573.958 63.9242C574.102 63.3836 574.338 62.8976 574.666 62.4663C574.992 62.0245 575.392 61.666 575.866 61.391C576.349 61.1042 576.888 60.9296 577.482 60.8672C578.076 60.8048 578.635 60.864 579.16 61.0448C579.683 61.215 580.153 61.482 580.569 61.8459C580.984 62.1991 581.321 62.6248 581.58 63.1231C581.839 63.6108 582.001 64.1515 582.067 64.7451C582.13 65.3176 582.09 65.8742 581.946 66.4148C581.801 66.9449 581.566 67.4308 581.239 67.8727C580.922 68.3029 580.522 68.6613 580.039 68.9481C579.565 69.2231 579.026 69.3924 578.421 69.4559ZM574.94 65.5103C575.008 66.1252 575.203 66.6731 575.525 67.1541C575.856 67.6234 576.266 67.9825 576.756 68.2314C577.243 68.4696 577.763 68.5598 578.315 68.5018C578.867 68.4438 579.354 68.2425 579.777 67.8977C580.2 67.5529 580.521 67.1116 580.741 66.5737C580.959 66.0253 581.034 65.4489 580.967 64.8446C580.899 64.2298 580.698 63.6824 580.366 63.2025C580.033 62.7226 579.623 62.3583 579.133 62.1094C578.644 61.8605 578.124 61.765 577.572 61.823C577.021 61.881 576.534 62.0876 576.112 62.443C575.7 62.7973 575.385 63.2434 575.166 63.7812C574.946 64.3085 574.87 64.8848 574.94 65.5103ZM587.656 60.9079C586.937 61.0049 586.323 61.2732 585.814 61.7129C585.315 62.1514 584.992 62.7163 584.843 63.4076L585.416 68.5598L584.334 68.6736L583.413 60.3886L584.431 60.2816L584.652 62.2693C584.874 61.6562 585.198 61.1448 585.625 60.7353C586.062 60.3247 586.544 60.0703 587.069 59.9722C587.174 59.9504 587.264 59.9356 587.338 59.9278C587.423 59.9189 587.492 59.917 587.547 59.922L587.656 60.9079ZM599.515 67.078L595.972 63.1549L594.39 64.9944L594.678 67.5864L593.596 67.7001L592.305 56.0917L593.387 55.978L594.261 63.8335L598.452 58.824L599.646 58.6986L596.633 62.4419L600.693 66.9542L599.515 67.078ZM602.034 66.8133L601.112 58.5283L602.194 58.4146L603.116 66.6995L602.034 66.8133ZM600.92 56.795L600.743 55.2048L601.825 55.0911L602.002 56.6813L600.92 56.795ZM604.484 62.389C604.397 61.6045 604.476 60.8722 604.723 60.192C604.978 59.5002 605.371 58.928 605.9 58.4756C606.429 58.0231 607.06 57.7584 607.792 57.6815C608.482 57.609 609.117 57.7299 609.7 58.0441C610.291 58.3465 610.77 58.7413 611.135 59.2285L610.573 54.1716L611.655 54.0579L612.801 64.3624C612.817 64.5108 612.862 64.6188 612.934 64.6863C613.004 64.7432 613.104 64.7703 613.232 64.7675L613.328 65.6262C613.119 65.6803 612.956 65.7082 612.838 65.7099C612.614 65.7227 612.408 65.6532 612.219 65.5014C612.031 65.3496 611.925 65.173 611.903 64.9716L611.813 64.1606C611.544 64.7358 611.146 65.212 610.619 65.5891C610.092 65.9663 609.527 66.1866 608.922 66.2502C608.349 66.3104 607.806 66.2495 607.292 66.0676C606.788 65.8845 606.334 65.6105 605.929 65.2456C605.534 64.8795 605.207 64.4527 604.949 63.965C604.7 63.4656 604.545 62.9402 604.484 62.389ZM611.547 62.9336L611.263 60.3734C611.082 60.0062 610.821 59.6851 610.479 59.41C610.136 59.1243 609.759 58.912 609.346 58.773C608.943 58.6223 608.55 58.567 608.169 58.6072C607.723 58.654 607.331 58.7918 606.991 59.0205C606.65 59.2387 606.365 59.5207 606.135 59.8666C605.916 60.2114 605.76 60.5925 605.667 61.0098C605.574 61.4272 605.551 61.8479 605.598 62.2719C605.647 62.7172 605.769 63.1334 605.962 63.5207C606.166 63.9068 606.429 64.2438 606.751 64.5317C607.071 64.8091 607.427 65.013 607.817 65.1436C608.207 65.2742 608.62 65.3167 609.054 65.271C609.33 65.242 609.611 65.1589 609.896 65.0216C610.181 64.8844 610.447 64.7117 610.692 64.5036C610.946 64.2838 611.15 64.0372 611.302 63.7638C611.454 63.4905 611.536 63.2137 611.547 62.9336ZM618.136 65.2817C617.457 65.3531 616.814 65.3081 616.206 65.1468C615.597 64.9855 615.056 64.6992 614.581 64.2879L614.941 63.4778C615.456 63.8634 615.959 64.1324 616.448 64.2848C616.946 64.4254 617.461 64.4679 617.991 64.4121C618.638 64.3441 619.149 64.1617 619.524 63.8649C619.898 63.5575 620.058 63.16 620.003 62.6723C619.967 62.3437 619.838 62.1051 619.618 61.9567C619.407 61.7965 619.11 61.683 618.727 61.616C618.353 61.5373 617.905 61.4611 617.381 61.3874C616.791 61.2885 616.29 61.175 615.878 61.0466C615.476 60.9065 615.16 60.7145 614.929 60.4707C614.707 60.2151 614.572 59.87 614.524 59.4354C614.464 58.8947 614.547 58.4355 614.773 58.0578C615.009 57.6684 615.35 57.359 615.797 57.1297C616.253 56.8887 616.773 56.7376 617.356 56.6762C617.993 56.6093 618.566 56.651 619.077 56.8011C619.587 56.9512 620.016 57.1904 620.364 57.5185L619.92 58.3051C619.585 57.9971 619.202 57.7853 618.771 57.6698C618.349 57.5426 617.889 57.5051 617.39 57.5575C617.051 57.5932 616.732 57.6749 616.435 57.8027C616.137 57.9198 615.899 58.095 615.721 58.3282C615.552 58.5497 615.488 58.8407 615.528 59.2011C615.561 59.4979 615.662 59.7234 615.829 59.8774C615.995 60.0208 616.233 60.1352 616.543 60.2206C616.852 60.2954 617.231 60.3735 617.68 60.455C618.325 60.5589 618.891 60.6764 619.377 60.8075C619.863 60.9281 620.248 61.1128 620.534 61.3617C620.819 61.6106 620.989 61.9841 621.045 62.4824C621.131 63.2563 620.906 63.8912 620.371 64.3872C619.836 64.8832 619.091 65.1814 618.136 65.2817ZM622.93 64.6169L622.757 63.0585L623.696 62.9599L623.869 64.5183L622.93 64.6169Z" fill="white"/>
<path d="M635.611 56.5286L642.414 53.3942L645.784 46.7047L648.918 53.5077L655.608 56.8777L648.804 60.0121L645.435 66.7016L642.3 59.8986L635.611 56.5286Z" fill="#E86E04"/>
</svg>
